<svg xmlns="http://www.w3.org/2000/svg" version="1.1" xmlns:xlink="http://www.w3.org/1999/xlink" xmlns:svgjs="http://svgjs.dev/svgjs" width="1000" height="1000" viewBox="0 0 1000 1000"><rect width="1000" height="1000" fill="#000000"></rect><g transform="matrix(0.7,0,0,0.7,149.57576318656004,407.416083559114)"><svg viewBox="0 0 396 105" data-background-color="#387910" preserveAspectRatio="xMidYMid meet" height="265" width="1000" xmlns="http://www.w3.org/2000/svg" xmlns:xlink="http://www.w3.org/1999/xlink"><defs></defs><g id="tight-bounds" transform="matrix(1,0,0,1,0.23999682588890892,-0.09400956176264685)"><svg viewBox="0 0 395.52 105.18783582198095" height="105.18783582198095" width="395.52"><g><svg viewBox="0 0 556.5585207118588 148.01574206604872" height="105.18783582198095" width="395.52"><g transform="matrix(1,0,0,1,161.03852071185878,53.55240640255881)"><svg viewBox="0 0 395.52 40.9109292609311" height="40.9109292609311" width="395.52"><g><svg viewBox="0 0 395.52 40.9109292609311" height="40.9109292609311" width="395.52"><g><svg viewBox="0 0 395.52 22.065400372439477" height="22.065400372439477" width="395.52"><g transform="matrix(1,0,0,1,0,0)"><svg width="395.52" viewBox="2.4000000953674316 -34.75 644.3599853515625 35.95000076293945" height="22.065400372439477" data-palette-color="#ffffff"><path d="M19.25 0.05Q17.65 0.05 16.95 0L16.95 0 15.2 0 13.5 0 11.45 0Q11.05 0 10.65-0.15L10.65-0.15Q10.15-0.3 9.75-0.3L9.75-0.3 9.3-0.25Q8.8-0.4 8.8-0.8L8.8-0.8 5.3-16.65Q3.95-23.4 2.9-29L2.9-29Q2.65-29.2 2.45-30.3L2.45-30.3Q2.4-30.9 2.4-32.15L2.4-32.15Q2.4-32.8 2.63-33.23 2.85-33.65 3.3-33.65L3.3-33.65 4-33.65 5.15-33.65Q5.5-33.55 6.4-33.55L6.4-33.55 8.65-33.5 9.05-33.5 11.2-33.5 11.5-33.45Q11.55-33.4 11.6-33.4 11.65-33.4 11.65-33.4L11.65-33.4 11.7-33.3Q11.75-33.3 11.83-33.35 11.9-33.4 12-33.4L12-33.4Q12.3-33.5 12.4-33.5L12.4-33.5 12.55-33.5 13-33.45Q13.55-33.4 15.15-33.4L15.15-33.4Q15.65-33.3 16.3-33.3L16.3-33.3Q16.55-32.85 16.82-31.75 17.1-30.65 17.4-29.3L17.4-29.3Q17.5-28.55 17.9-26.15L17.9-26.15Q18.05-25.4 18.25-24.25L18.25-24.25 18.55-22.65Q18.55-22.6 18.6-22.48 18.65-22.35 18.65-22.15L18.65-22.15 18.8-21.15Q18.9-20.75 19-19.9L19-19.9Q19.1-19.65 19.15-19.28 19.2-18.9 19.25-18.65L19.25-18.65Q19.3-18.4 19.35-18.18 19.4-17.95 19.4-17.7L19.4-17.7 19.5-17.25 19.55-17.05Q19.55-16.9 19.65-16.8L19.65-16.8 19.65-16.5 19.75-16.8 19.75-17.05 19.8-17.25Q19.8-17.4 19.9-17.7L19.9-17.7Q19.9-18.05 20.05-18.65L20.05-18.65Q20.15-18.95 20.2-19.28 20.25-19.6 20.3-19.9L20.3-19.9 20.5-21.15Q20.6-21.45 20.65-21.75 20.7-22.05 20.7-22.15L20.7-22.15 20.75-22.65Q22.2-30.2 22.8-32.25L22.8-32.25Q22.85-32.55 22.98-32.83 23.1-33.1 23.4-33.25L23.4-33.25Q23.45-33.35 23.73-33.4 24-33.45 24.15-33.5L24.15-33.5Q25.2-33.65 25.65-33.65L25.65-33.65 26.5-33.65 27.95-33.65 29.7-33.6Q30.15-33.55 30.75-33.55L30.75-33.55 30.9-33.55Q30.95-33.6 30.98-33.63 31-33.65 31-33.65L31-33.65Q31.2-33.65 31.25-33.55L31.25-33.55Q31.35-33.55 31.38-33.52 31.4-33.5 31.4-33.5L31.4-33.5Q32.3-33.45 33.5-33.45L33.5-33.45Q34-33.4 34.55-33.4L34.55-33.4Q35-33.4 35.05-33.3L35.05-33.3Q35.1-33.3 35.2-33.35 35.3-33.4 35.4-33.4L35.4-33.4Q35.5-33.5 35.9-33.5L35.9-33.5 36.2-33.5 36.8-33.5Q37.6-33.5 37.75-33.3L37.75-33.3Q38.15-31.8 38.4-29.55L38.4-29.55 38.55-28.45Q38.95-25.6 39.4-23.65L39.4-23.65 39.5-23.05Q39.65-22 39.65-21.75L39.65-21.75Q39.7-21.25 39.9-20.15L39.9-20.15Q40-19 40.15-18.55L40.15-18.55Q40.15-18 40.25-17.3L40.25-17.3Q40.3-17.05 40.35-16.93 40.4-16.8 40.4-16.75L40.4-16.75Q40.4-16.5 40.45-16.3L40.45-16.3 40.5-16Q40.6-16.25 40.65-16.3L40.65-16.3 40.65-16.75 40.7-17.3 40.9-18.55 41.15-20.15Q41.2-20.8 41.4-21.75L41.4-21.75 41.55-23.05Q41.6-23.3 41.63-23.45 41.65-23.6 41.65-23.65L41.65-23.65Q41.95-25.05 42.05-25.75L42.05-25.75 42.25-26.8Q42.95-30.5 43.4-31.9L43.4-31.9Q43.55-32.75 43.9-33.3L43.9-33.3Q44.2-33.3 44.55-33.35 44.9-33.4 45.25-33.4L45.25-33.4Q45.65-33.4 46.15-33.5L46.15-33.5 46.25-33.5Q46.4-33.5 46.4-33.4L46.4-33.4Q46.4-33.4 46.4-33.35 46.4-33.3 46.45-33.3L46.45-33.3Q46.65-33.3 46.75-33.35 46.85-33.4 46.9-33.4L46.9-33.4 46.95-33.5 49.65-33.5 50-33.5Q50.55-33.5 50.95-33.55L50.95-33.55 52.2-33.55Q53.15-33.55 53.5-33.65L53.5-33.65 54.65-33.65 55.4-33.65Q55.8-33.65 56.03-33.2 56.25-32.75 56.25-32.15L56.25-32.15Q56-31.5 55.8-30.3L55.8-30.3Q55.75-29.75 55.75-29L55.75-29Q54.1-21.25 52.4-15.15L52.4-15.15 48.9-0.8Q48.45-0.7 48.4-0.5L48.4-0.5 48.4-0.25 47.9-0.3Q47.5-0.3 47.3-0.25L47.3-0.25 46.7-0.2 44.2-0.2Q42.25-0.2 41.3-0.25L41.3-0.25 38.45-0.25 36-0.25 34.55-0.25Q34.05-0.3 33.15-0.3L33.15-0.3 32.65-0.25Q32.15-0.4 32.15-0.8L32.15-0.8 28.8-17.3 25.5-0.8Q25.25 0 23.9 0L23.9 0 21.55 0Q20.9 0.05 19.25 0.05L19.25 0.05ZM65.5 0Q65.25 0 64.75-0.08 64.25-0.15 63.55-0.2L63.55-0.2 62.5-0.45Q62.25-0.5 62.12-0.58 62-0.65 62.05-0.7L62.05-0.7Q62.05-2 61.9-4.15L61.9-4.15Q61.9-4.9 61.85-5.48 61.8-6.05 61.75-6.45L61.75-6.45 61.65-8.6Q61.65-9.45 61.55-10.75L61.55-10.75 61.5-12.3Q61.5-14.2 61.45-15.25L61.45-15.25Q61.4-16.3 61.4-19.65L61.4-19.65Q61.4-22.8 61.45-26.15 61.5-29.5 61.75-32.5L61.75-32.5Q61.75-33.05 62.95-33.4L62.95-33.4Q63.7-33.5 65.45-33.5L65.45-33.5Q69.5-33.5 71.4-33.65L71.4-33.65Q77.3-33.75 80.3-33.75L80.3-33.75 82.5-33.75Q86.6-33.65 88.8-33.45L88.8-33.45Q89.6-33.45 89.95-31.55L89.95-31.55Q90.1-31.2 90.3-29.75L90.3-29.75Q90.45-29 90.7-27.9L90.7-27.9Q90.75-27.6 90.72-27.33 90.7-27.05 90.7-27L90.7-27Q90.65-26.5 90.15-26.5L90.15-26.5Q89.95-26.55 89.55-26.55L89.55-26.55Q87.45-26.55 84.4-26.2L84.4-26.2 81.75-26Q80.1-25.8 79.15-25.75L79.15-25.75Q79-25.75 78.75-25.15L78.75-25.15Q78.55-24.5 78.3-22.15L78.3-22.15 78.2-20.9Q78.2-20.25 78.35-20.08 78.5-19.9 79-19.9L79-19.9 83.45-19.9Q85.4-19.9 87.9-19.65L87.9-19.65 88.5-19.65Q89.15-19.5 89.3-19.15L89.3-19.15Q89.5-18.85 89.55-18.5L89.55-18.5 89.75-14.05 89.75-13.9Q89.75-13.05 87.95-12.9L87.95-12.9Q86.9-12.65 83.95-12.65L83.95-12.65Q81.4-12.65 80.65-12.7L80.65-12.7Q79.2-12.7 78.9-12.65L78.9-12.65Q78.35-12.5 78.2-12.08 78.05-11.65 78.05-10.65L78.05-10.65Q78.05-10 77.95-8.8L77.95-8.8Q77.9-8.2 77.9-6.9L77.9-6.9Q81.15-6.9 82.7-7L82.7-7Q84.4-7.15 87.5-7.15L87.5-7.15Q87.7-7.15 87.9-6.8L87.9-6.8Q88.15-6.3 88.7-4.55L88.7-4.55Q89-3.55 89.3-2.05L89.3-2.05Q89.4-1.7 89.4-1.3L89.4-1.3Q89.4-0.25 88.4-0.25L88.4-0.25Q87.1-0.25 84.9-0.15L84.9-0.15Q83.75-0.05 81.3-0.05L81.3-0.05Q76.05-0.05 73.4 0L73.4 0 65.5 0ZM112.3 0Q107.15 0 104.8-0.05L104.8-0.05Q102.65-0.05 101.5-0.1L101.5-0.1 97.4-0.15Q96.95-0.15 96.55-0.55L96.55-0.55Q96.15-0.95 96.15-1.4L96.15-1.4 96.15-12.4 96.15-17.2 96.1-21.3Q96.1-23.35 96.2-26.45L96.2-26.45Q96.2-27.1 96.35-29.8L96.35-29.8 96.35-30.95Q96.35-32.35 96.9-33.2L96.9-33.2Q97.15-33.65 97.7-33.65L97.7-33.65Q100.15-33.65 103.05-33.55L103.05-33.55Q103.45-33.5 104.2-33.5L104.2-33.5Q105.85-33.5 106.65-33.45L106.65-33.45 109.35-33.45Q109.55-33.45 110.52-33.45 111.5-33.45 112.05-33.2L112.05-33.2Q112.95-32.7 112.95-30.9L112.95-30.9 112.9-30.5Q112.9-30.35 112.8-29.75L112.8-29.75Q112.65-29 112.65-28.65L112.65-28.65Q112.65-28.1 112.8-27.25L112.8-27.25Q112.9-26.65 112.9-26.45L112.9-26.45 112.95-26.15 112.95-19.15 112.95-15.9 112.95-12.8 112.95-12.2Q112.95-11.8 113.4-11.7L113.4-11.7Q113.55-11.65 114.05-11.65L114.05-11.65 117.7-11.65Q119.05-11.7 121.8-11.7L121.8-11.7Q122.35-11.7 122.7-11.38 123.05-11.05 123.05-10.7L123.05-10.7 123.05-1.15 123.05-1.05Q123.05-0.65 122.65-0.4L122.65-0.4Q122.2-0.2 121.6-0.15L121.6-0.15Q120.95 0 119.55 0L119.55 0 112.3 0ZM144.54 1.2Q141.24 1.2 139.04 0.9L139.04 0.9Q136.19 0.5 133.89-0.55L133.89-0.55Q133.59-0.7 133.02-1.03 132.44-1.35 132.04-1.65L132.04-1.65Q130.39-3.05 129.34-4.8L129.34-4.8Q128.49-5.7 127.79-7.3L127.79-7.3Q126.44-10.8 126.44-15.65L126.44-15.65Q126.44-21.35 128.79-25.65L128.79-25.65Q130.84-29.75 134.27-32.08 137.69-34.4 142.04-34.7L142.04-34.7 142.64-34.75 143.29-34.75Q147.19-34.75 151.69-33.15L151.69-33.15Q152.09-32.95 153.44-32.35 154.79-31.75 155.94-31L155.94-31 155.04-24.5 152.09-25.25Q150.49-25.65 149.09-25.65L149.09-25.65Q146.29-25.65 144.89-23.55L144.89-23.55Q143.39-21.35 143.39-16.4L143.39-16.4Q143.39-14.8 143.54-14.15L143.54-14.15Q143.74-11 144.94-9.5L144.94-9.5Q146.09-8.2 147.69-8.2L147.69-8.2Q149.19-8.2 151.04-9.15L151.04-9.15Q152.64-9.9 154.54-11.2L154.54-11.2 155.04-3Q153.09-1.2 150.04 0.05L150.04 0.05Q147.14 1.2 144.54 1.2L144.54 1.2ZM180.09 1.2Q174.14 1.2 170.69 0.25L170.69 0.25Q165.89-1 163.39-4.4L163.39-4.4Q160.49-8.45 160.49-15.65L160.49-15.65Q160.49-20.8 161.64-24.4 162.79-28 165.19-30.3L165.19-30.3Q167.59-32.6 171.37-33.68 175.14-34.75 180.59-34.75L180.59-34.75Q184.84-34.75 188.59-33.45L188.59-33.45Q193.19-31.8 195.74-28.4L195.74-28.4Q198.89-24.35 198.89-17.75L198.89-17.75Q198.89-10.05 196.59-5.75L196.59-5.75Q194.29-1.8 189.94-0.15L189.94-0.15Q186.39 1.2 180.09 1.2L180.09 1.2ZM179.69-3.65Q180.29-3.65 180.64-4.4L180.64-4.4Q181.39-6 181.69-9.45L181.69-9.45Q181.99-12.6 181.99-15.4L181.99-15.4 181.99-17.4 181.99-18.65Q181.99-20.85 181.69-24L181.69-24Q181.39-27.4 180.64-29.15L180.64-29.15Q180.24-30 179.69-30L179.69-30Q178.59-30 178.09-27.9L178.09-27.9Q177.59-25 177.59-22.65L177.59-22.65Q177.44-20.65 177.44-16.4L177.44-16.4Q177.44-13.55 177.59-11.7L177.59-11.7Q177.59-9.35 178.09-6.25L178.09-6.25Q178.59-3.65 179.69-3.65L179.69-3.65ZM209.84 0.15Q209.34 0.15 209.04 0.05L209.04 0.05 208.04 0.05 207.14 0.05 206.79 0.05 204.54-0.5 204.34-0.9Q204.29-0.9 204.29-1.45L204.29-1.45Q204.29-2.15 204.24-2.6L204.24-2.6 204.19-4.9Q204.14-5.65 204.14-7.15L204.14-7.15 204.04-11Q204.04-12.25 204.14-14.45L204.14-14.45 204.19-16.15Q204.29-17.75 204.29-21.4L204.29-21.4 204.29-21.75 204.29-22.4Q204.19-22.55 204.19-22.95L204.19-22.95 204.14-23.3Q204.14-24.55 204.29-25.9L204.29-25.9Q204.39-27.6 204.39-29L204.39-29 204.34-30.4Q204.29-30.95 204.29-31.7L204.29-31.7Q204.29-31.75 204.21-31.85 204.14-31.95 204.14-32.05L204.14-32.05Q204.14-32.55 204.54-32.9 204.94-33.25 205.54-33.4L205.54-33.4Q206.34-33.65 207.59-33.65L207.59-33.65 216.04-33.65 219.94-33.65Q219.99-33.65 220.09-33.55 220.19-33.45 220.29-33.4L220.29-33.4Q220.69-33.05 221.29-32.05L221.29-32.05Q221.44-31.75 221.61-31.38 221.79-31 222.09-30.2L222.09-30.2Q222.44-29.4 223.04-27.75L223.04-27.75 223.64-26.2Q224.04-25.45 224.54-24.05L224.54-24.05Q224.69-23.65 224.86-23.25 225.04-22.85 225.19-22.45L225.19-22.45Q225.29-22.1 225.41-21.93 225.54-21.75 225.54-21.7L225.54-21.7Q225.89-20.9 226.29-20.9L226.29-20.9Q226.79-20.9 227.09-21.7L227.09-21.7Q227.14-21.75 227.19-21.93 227.24-22.1 227.44-22.5L227.44-22.5 228.19-24.15 230.19-28.4 231.04-30.2Q231.19-30.6 231.26-30.88 231.34-31.15 231.44-31.25L231.44-31.25Q231.64-31.7 232.39-32.8L232.39-32.8Q232.64-33.2 232.84-33.4L232.84-33.4Q232.99-33.45 233.04-33.55 233.09-33.65 233.19-33.65L233.19-33.65 237.09-33.65 245.54-33.65 246.29-33.65 246.79-33.65 247.44-33.65 248.54-33.65Q248.64-33.65 248.79-32.9L248.79-32.9 248.94-28Q249.04-25.9 249.04-21.4L249.04-21.4 249.04-18.5Q249.04-16.8 248.89-14.7 248.74-12.6 248.69-12L248.69-12 248.59-11 248.59-9.25Q248.64-8.55 248.64-7.15L248.64-7.15Q248.64-5.65 248.69-4.9L248.69-4.9Q248.69-3.45 248.79-2.9L248.79-2.9 248.79-1.45 248.79-0.9 248.64-0.5 246.39 0.05 246.04 0.05 245.14 0.05 244.14 0.05Q243.79 0.15 243.29 0.15L243.29 0.15Q242.39 0.15 240.79 0.05L240.79 0.05 239.54 0Q239.19-0.05 238.74-0.1 238.29-0.15 237.64-0.15L237.64-0.15 235.69-0.3Q235.59-0.3 235.54-0.25L235.54-0.25 235.14-0.25Q234.89-0.25 234.84-0.8L234.84-0.8Q234.54-1.8 234.54-4.2L234.54-4.2Q234.54-5.8 234.49-6.7L234.49-6.7 234.44-9.4Q234.39-10.3 234.39-12L234.39-12Q234.39-12.4 234.04-12.4L234.04-12.4Q233.84-12.4 233.64-11.9L233.64-11.9 233.09-10.55 232.64-9.3Q232.54-9 232.44-8.7 232.34-8.4 232.19-8.15L232.19-8.15 231.94-7.55Q231.49-6.55 230.79-5.3L230.79-5.3Q230.04-3.95 228.94-3.15L228.94-3.15Q228.34-2.8 227.89-2.8L227.89-2.8 227.14-2.8Q226.54-2.8 226.14-2.9L226.14-2.9 225.04-2.9 224.04-2.9Q222.04-6.1 220.29-9.9L220.29-9.9 219.54-11.75Q219.24-12.4 219.14-12.4L219.14-12.4Q218.79-12.4 218.79-12L218.79-12 218.79-9.65Q218.79-6.15 218.69-4.5L218.69-4.5Q218.59-1.9 218.34-0.9L218.34-0.9Q218.29-0.25 218.04-0.25L218.04-0.25 217.69-0.25 217.44-0.3Q215.74-0.2 214.74-0.1L214.74-0.1Q214.14-0.05 212.64 0.05 211.14 0.15 209.84 0.15L209.84 0.15ZM258.89 0Q258.64 0 258.14-0.08 257.64-0.15 256.94-0.2L256.94-0.2 255.89-0.45Q255.64-0.5 255.51-0.58 255.39-0.65 255.44-0.7L255.44-0.7Q255.44-2 255.29-4.15L255.29-4.15Q255.29-4.9 255.24-5.48 255.19-6.05 255.14-6.45L255.14-6.45 255.04-8.6Q255.04-9.45 254.94-10.75L254.94-10.75 254.89-12.3Q254.89-14.2 254.84-15.25L254.84-15.25Q254.79-16.3 254.79-19.65L254.79-19.65Q254.79-22.8 254.84-26.15 254.89-29.5 255.14-32.5L255.14-32.5Q255.14-33.05 256.34-33.4L256.34-33.4Q257.09-33.5 258.84-33.5L258.84-33.5Q262.89-33.5 264.79-33.65L264.79-33.65Q270.69-33.75 273.69-33.75L273.69-33.75 275.89-33.75Q279.99-33.65 282.19-33.45L282.19-33.45Q282.99-33.45 283.34-31.55L283.34-31.55Q283.49-31.2 283.69-29.75L283.69-29.75Q283.84-29 284.09-27.9L284.09-27.9Q284.14-27.6 284.11-27.33 284.09-27.05 284.09-27L284.09-27Q284.04-26.5 283.54-26.5L283.54-26.5Q283.34-26.55 282.94-26.55L282.94-26.55Q280.84-26.55 277.79-26.2L277.79-26.2 275.14-26Q273.49-25.8 272.54-25.75L272.54-25.75Q272.39-25.75 272.14-25.15L272.14-25.15Q271.94-24.5 271.69-22.15L271.69-22.15 271.59-20.9Q271.59-20.25 271.74-20.08 271.89-19.9 272.39-19.9L272.39-19.9 276.84-19.9Q278.79-19.9 281.29-19.65L281.29-19.65 281.89-19.65Q282.54-19.5 282.69-19.15L282.69-19.15Q282.89-18.85 282.94-18.5L282.94-18.5 283.14-14.05 283.14-13.9Q283.14-13.05 281.34-12.9L281.34-12.9Q280.29-12.65 277.34-12.65L277.34-12.65Q274.79-12.65 274.04-12.7L274.04-12.7Q272.59-12.7 272.29-12.65L272.29-12.65Q271.74-12.5 271.59-12.08 271.44-11.65 271.44-10.65L271.44-10.65Q271.44-10 271.34-8.8L271.34-8.8Q271.29-8.2 271.29-6.9L271.29-6.9Q274.54-6.9 276.09-7L276.09-7Q277.79-7.15 280.89-7.15L280.89-7.15Q281.09-7.15 281.29-6.8L281.29-6.8Q281.54-6.3 282.09-4.55L282.09-4.55Q282.39-3.55 282.69-2.05L282.69-2.05Q282.79-1.7 282.79-1.3L282.79-1.3Q282.79-0.25 281.79-0.25L281.79-0.25Q280.49-0.25 278.29-0.15L278.29-0.15Q277.14-0.05 274.69-0.05L274.69-0.05Q269.44-0.05 266.79 0L266.79 0 258.89 0ZM310.48 0.05Q309.78 0.05 309.43-0.9L309.43-0.9Q308.68-2.55 308.68-6.9L308.68-6.9Q308.68-11.1 308.83-16.55L308.83-16.55Q308.88-18.3 308.88-21.95L308.88-21.95 308.73-22.15 303.18-22.15Q302.53-22.15 302.16-22.88 301.78-23.6 301.58-24.9L301.58-24.9Q301.33-26.4 301.33-29.2L301.33-29.2 301.33-29.9Q301.33-30.4 301.38-30.7L301.38-30.7 301.38-31.45 301.38-31.9Q301.38-32.2 301.68-32.43 301.98-32.65 302.38-32.75L302.38-32.75Q302.88-32.9 303.88-32.9L303.88-32.9 307.68-32.9Q308.93-32.9 309.58-32.85L309.58-32.85 311.43-32.8 329.43-32.8Q331.38-32.8 331.98-32.75L331.98-32.75Q332.23-32.7 332.68-32.65 333.13-32.6 333.33-32.45L333.33-32.45Q333.68-32.3 333.75-32.08 333.83-31.85 333.83-31.4L333.83-31.4 333.83-23.15Q333.83-22.6 333.38-22.4L333.38-22.4Q333.08-22.3 332.58-22.3L332.58-22.3 330.98-22.3 329.33-22.3Q328.18-22.3 327.58-22.4L327.58-22.4 326.08-22.4Q325.63-22.4 325.58-22.2L325.58-22.2Q325.58-22.15 325.53-22.08 325.48-22 325.48-21.9L325.48-21.9 325.48-21.15 325.48-19.45Q325.48-18.7 325.43-18.3L325.43-18.3Q325.43-16.85 325.23-11.95L325.23-11.95 325.13-10.45Q325.03-8.35 324.93-7.4L324.93-7.4 324.93-2.65Q324.93-0.95 324.23-0.5L324.23-0.5Q323.58-0.25 323.33-0.2L323.33-0.2 322.08-0.15Q320.13-0.15 319.33-0.05L319.33-0.05 314.08 0Q313.08 0.05 310.48 0.05L310.48 0.05ZM357.48 1.2Q351.53 1.2 348.08 0.25L348.08 0.25Q343.28-1 340.78-4.4L340.78-4.4Q337.88-8.45 337.88-15.65L337.88-15.65Q337.88-20.8 339.03-24.4 340.18-28 342.58-30.3L342.58-30.3Q344.98-32.6 348.75-33.68 352.53-34.75 357.98-34.75L357.98-34.75Q362.23-34.75 365.98-33.45L365.98-33.45Q370.58-31.8 373.13-28.4L373.13-28.4Q376.28-24.35 376.28-17.75L376.28-17.75Q376.28-10.05 373.98-5.75L373.98-5.75Q371.68-1.8 367.33-0.15L367.33-0.15Q363.78 1.2 357.48 1.2L357.48 1.2ZM357.08-3.65Q357.68-3.65 358.03-4.4L358.03-4.4Q358.78-6 359.08-9.45L359.08-9.45Q359.38-12.6 359.38-15.4L359.38-15.4 359.38-17.4 359.38-18.65Q359.38-20.85 359.08-24L359.08-24Q358.78-27.4 358.03-29.15L358.03-29.15Q357.63-30 357.08-30L357.08-30Q355.98-30 355.48-27.9L355.48-27.9Q354.98-25 354.98-22.65L354.98-22.65Q354.83-20.65 354.83-16.4L354.83-16.4Q354.83-13.55 354.98-11.7L354.98-11.7Q354.98-9.35 355.48-6.25L355.48-6.25Q355.98-3.65 357.08-3.65L357.08-3.65ZM411.57 1.2Q408.27 1.2 406.07 0.9L406.07 0.9Q403.22 0.5 400.92-0.55L400.92-0.55Q400.62-0.7 400.05-1.03 399.47-1.35 399.07-1.65L399.07-1.65Q397.42-3.05 396.37-4.8L396.37-4.8Q395.52-5.7 394.82-7.3L394.82-7.3Q393.47-10.8 393.47-15.65L393.47-15.65Q393.47-21.35 395.82-25.65L395.82-25.65Q397.87-29.75 401.3-32.08 404.72-34.4 409.07-34.7L409.07-34.7 409.67-34.75 410.32-34.75Q414.22-34.75 418.72-33.15L418.72-33.15Q419.12-32.95 420.47-32.35 421.82-31.75 422.97-31L422.97-31 422.07-24.5 419.12-25.25Q417.52-25.65 416.12-25.65L416.12-25.65Q413.32-25.65 411.92-23.55L411.92-23.55Q410.42-21.35 410.42-16.4L410.42-16.4Q410.42-14.8 410.57-14.15L410.57-14.15Q410.77-11 411.97-9.5L411.97-9.5Q413.12-8.2 414.72-8.2L414.72-8.2Q416.22-8.2 418.07-9.15L418.07-9.15Q419.67-9.9 421.57-11.2L421.57-11.2 422.07-3Q420.12-1.2 417.07 0.05L417.07 0.05Q414.17 1.2 411.57 1.2L411.57 1.2ZM428.87 0.05Q428.22 0.05 427.97-0.95L427.97-0.95Q427.92-1.1 427.92-1.45L427.92-1.45Q427.92-1.95 428.12-2.95L428.12-2.95Q428.22-3.6 428.29-3.98 428.37-4.35 428.42-4.55L428.42-4.55Q429.92-11.6 431.37-16.95L431.37-16.95 434.87-32.75Q434.87-32.85 435.02-33.05 435.17-33.25 435.37-33.3L435.37-33.3 435.62-33.3Q435.62-33.25 435.77-33.25L435.77-33.25Q436.37-33.25 437.12-33.4L437.12-33.4Q437.87-33.55 438.47-33.55L438.47-33.55Q439.57-33.55 440.52-33.4L440.52-33.4Q440.97-33.4 441.52-33.35 442.07-33.3 442.67-33.3L442.67-33.3Q442.87-33.3 443.12-33.4L443.12-33.4 444.02-33.4 445.17-33.4 446.37-33.45Q446.72-33.5 447.22-33.5L447.22-33.5Q447.62-33.5 447.62-33.55L447.62-33.55 448.42-33.55 450.12-33.55 452.22-33.55Q455.02-33.55 455.92-33.45L455.92-33.45Q456.07-33.45 456.34-33.43 456.62-33.4 456.67-33.3L456.67-33.3Q457.02-33.3 457.37-33.35 457.72-33.4 458.02-33.4L458.02-33.4Q458.72-33.55 459.37-33.55L459.37-33.55Q459.67-33.55 459.97-33.4L459.97-33.4Q460.27-33.25 460.62-33.25L460.62-33.25 460.87-33.3 461.02-33.3Q461.17-33.2 461.34-33.02 461.52-32.85 461.52-32.75L461.52-32.75 465.02-16.95Q466.62-11.1 467.92-4.55L467.92-4.55Q467.92-4.25 468.12-3.9L468.12-3.9Q468.17-3.55 468.27-2.95 468.37-2.35 468.37-1.95L468.37-1.95Q468.42-1.75 468.42-1.4L468.42-1.4Q468.42-0.7 468.12-0.25L468.12-0.25Q467.92 0.05 467.52 0.05L467.52 0.05 466.87 0.05Q466.12 0.05 465.72 0L465.72 0 464.42 0 463.17 0 462.17 0Q461.77 0 461.77-0.05L461.77-0.05 458.62-0.05 458.62-0.15Q458.42-0.25 458.12-0.25L458.12-0.25Q458.12-0.25 458.09-0.23 458.07-0.2 458.02-0.15L458.02-0.15Q458.02-0.05 457.92-0.05L457.92-0.05 457.77-0.05 457.37-0.05Q457.12-0.15 456.37-0.15L456.37-0.15Q454.87-0.25 454.02-0.25L454.02-0.25Q453.72-0.7 453.39-2.05 453.07-3.4 452.72-5.05L452.72-5.05Q452.62-5.85 452.52-6.15L452.52-6.15Q451.47-5.95 449.77-5.95L449.77-5.95 448.22-5.95 446.77-5.95 446.42-4.35Q445.77-1.05 445.37-0.25L445.37-0.25Q445.17-0.25 444.87-0.15L444.87-0.15Q444.77-0.1 444.69-0.08 444.62-0.05 444.62-0.05L444.62-0.05 444.42-0.05Q444.12-0.05 443.97-0.15L443.97-0.15Q443.87-0.25 443.72-0.25L443.72-0.25 441.47-0.15 440.67-0.15 439.92-0.15Q439.72-0.05 439.42-0.05L439.42-0.05 439.22-0.05 434.62-0.05 434.17-0.05Q433.62 0 431.92 0L431.92 0 430.62 0Q430.22 0.05 429.47 0.05L429.47 0.05 428.87 0.05ZM451.97-12.2Q451.62-14.65 451.62-14.65L451.62-14.65Q451.47-15.35 451.12-17.3L451.12-17.3Q451.02-17.8 450.62-20L450.62-20Q450.22-22.4 450.22-22.4L450.22-22.4Q450.07-23.4 449.92-24.15L449.92-24.15 449.87-24.8Q449.72-25.05 449.72-25.25L449.72-25.25 449.67-25.55Q449.62-25.45 449.62-25.25L449.62-25.25Q449.62-25.05 449.52-25L449.52-25 449.52-24.8 449.42-24.15Q449.37-23.8 449.29-23.38 449.22-22.95 449.12-22.45L449.12-22.45 448.87-21.05Q448.32-17.9 448.22-17.4L448.22-17.4Q448.17-16.85 447.97-15.75L447.97-15.75Q447.87-15.4 447.77-14.7L447.77-14.7 447.37-12.4 449.92-12.4 450.27-12.5 450.37-12.5Q450.97-12.5 451.27-12.4L451.27-12.4Q451.47-12.4 451.64-12.33 451.82-12.25 451.97-12.2L451.97-12.2ZM480.42 0.15Q479.92 0.15 479.57 0.05L479.57 0.05 478.57 0.05 477.77 0.05 477.32 0.05 475.07-0.5 474.92-0.9Q474.87-0.9 474.87-1.45L474.87-1.45Q474.77-2.95 474.77-4.9L474.77-4.9Q474.77-6.3 474.67-7.15L474.67-7.15Q474.67-8.55 474.62-9.25L474.62-9.25 474.62-11Q474.37-13.3 474.32-16.05 474.27-18.8 474.27-21.4L474.27-21.4 474.37-26.5Q474.42-27.35 474.42-29.1L474.42-29.1Q474.42-30.85 474.37-31.7L474.37-31.7Q474.22-32.85 475.02-33.4L475.02-33.4Q475.52-33.65 476.77-33.65L476.77-33.65Q478.62-33.65 481.52-33.75L481.52-33.75 482.62-33.85Q485.62-34.05 486.37-34.05L486.37-34.05Q487.07-34.05 487.37-34L487.37-34Q488.07-33.95 488.32-33.8 488.57-33.65 488.79-33.3 489.02-32.95 489.12-32.75L489.12-32.75Q489.72-31.95 490.32-31.05L490.32-31.05Q491.22-29.7 491.77-28.95L491.77-28.95 495.07-23.9 496.67-21.5Q496.67-22.8 496.77-23.55L496.77-23.55 496.77-28.2 496.92-31.75Q496.97-32.15 497.02-32.3 497.07-32.45 497.17-32.52 497.27-32.6 497.32-32.65L497.32-32.65Q497.92-33.15 498.52-33.4L498.52-33.4Q499.02-33.5 499.32-33.5L499.32-33.5 502.17-33.5 502.77-33.5Q503.17-33.45 504.17-33.45L504.17-33.45Q505.27-33.45 505.92-33.4L505.92-33.4 507.62-33.4 509.02-33.4 509.62-33.4Q510.92-33.4 511.37-33L511.37-33Q511.92-32.6 511.92-31.25L511.92-31.25 511.87-30.75 511.82-29.95Q511.77-29.65 511.77-29.15L511.77-29.15 511.77-28.55 511.77-28.15 511.87-27.65 511.87-26.05Q511.82-25.2 511.82-23.15L511.82-23.15 511.82-19.45Q511.77-18.15 511.77-15.8L511.77-15.8 511.77-12.9 511.77-11.2 511.77-3.3 511.57-1.4Q511.37-0.25 510.77 0L510.77 0 509.92 0.05 509.07 0 506.82 0 503.87 0 500.82 0 500.07 0Q499.07 0.1 498.12-0.25L498.12-0.25Q497.67-0.45 497.12-0.9L497.12-0.9 492.02-8.05Q492.02-8.1 490.92-9.9L490.92-9.9Q490.52-10.5 490.17-10.95L490.17-10.95Q490.07-11.15 489.94-11.28 489.82-11.4 489.77-11.4L489.77-11.4Q489.32-11.4 489.32-11L489.32-11 489.32-9.9Q489.27-9.4 489.27-8.25L489.27-8.25 489.27-6.3 489.27-4.4Q489.17-3.8 489.17-2.9L489.17-2.9 489.17-1.9 489.17-1.15 489.22-0.9Q489.22-0.5 488.82-0.4L488.82-0.4Q488.57-0.2 488.02-0.3L488.02-0.3Q486.32-0.2 485.32-0.1L485.32-0.1Q484.72-0.05 483.22 0.05 481.72 0.15 480.42 0.15L480.42 0.15ZM518.41 0.05Q517.76 0.05 517.51-0.95L517.51-0.95Q517.47-1.1 517.47-1.45L517.47-1.45Q517.47-1.95 517.66-2.95L517.66-2.95Q517.76-3.6 517.84-3.98 517.91-4.35 517.97-4.55L517.97-4.55Q519.47-11.6 520.91-16.95L520.91-16.95 524.41-32.75Q524.41-32.85 524.56-33.05 524.72-33.25 524.91-33.3L524.91-33.3 525.16-33.3Q525.16-33.25 525.31-33.25L525.31-33.25Q525.91-33.25 526.66-33.4L526.66-33.4Q527.41-33.55 528.01-33.55L528.01-33.55Q529.12-33.55 530.06-33.4L530.06-33.4Q530.51-33.4 531.06-33.35 531.62-33.3 532.22-33.3L532.22-33.3Q532.41-33.3 532.66-33.4L532.66-33.4 533.56-33.4 534.72-33.4 535.91-33.45Q536.26-33.5 536.76-33.5L536.76-33.5Q537.16-33.5 537.16-33.55L537.16-33.55 537.97-33.55 539.66-33.55 541.76-33.55Q544.56-33.55 545.47-33.45L545.47-33.45Q545.62-33.45 545.89-33.43 546.16-33.4 546.22-33.3L546.22-33.3Q546.56-33.3 546.91-33.35 547.26-33.4 547.56-33.4L547.56-33.4Q548.26-33.55 548.91-33.55L548.91-33.55Q549.22-33.55 549.51-33.4L549.51-33.4Q549.81-33.25 550.16-33.25L550.16-33.25 550.41-33.3 550.56-33.3Q550.72-33.2 550.89-33.02 551.06-32.85 551.06-32.75L551.06-32.75 554.56-16.95Q556.16-11.1 557.47-4.55L557.47-4.55Q557.47-4.25 557.66-3.9L557.66-3.9Q557.72-3.55 557.81-2.95 557.91-2.35 557.91-1.95L557.91-1.95Q557.97-1.75 557.97-1.4L557.97-1.4Q557.97-0.7 557.66-0.25L557.66-0.25Q557.47 0.05 557.06 0.05L557.06 0.05 556.41 0.05Q555.66 0.05 555.26 0L555.26 0 553.97 0 552.72 0 551.72 0Q551.31 0 551.31-0.05L551.31-0.05 548.16-0.05 548.16-0.15Q547.97-0.25 547.66-0.25L547.66-0.25Q547.66-0.25 547.64-0.23 547.62-0.2 547.56-0.15L547.56-0.15Q547.56-0.05 547.47-0.05L547.47-0.05 547.31-0.05 546.91-0.05Q546.66-0.15 545.91-0.15L545.91-0.15Q544.41-0.25 543.56-0.25L543.56-0.25Q543.26-0.7 542.94-2.05 542.62-3.4 542.26-5.05L542.26-5.05Q542.16-5.85 542.06-6.15L542.06-6.15Q541.01-5.95 539.31-5.95L539.31-5.95 537.76-5.95 536.31-5.95 535.97-4.35Q535.31-1.05 534.91-0.25L534.91-0.25Q534.72-0.25 534.41-0.15L534.41-0.15Q534.31-0.1 534.24-0.08 534.16-0.05 534.16-0.05L534.16-0.05 533.97-0.05Q533.66-0.05 533.51-0.15L533.51-0.15Q533.41-0.25 533.26-0.25L533.26-0.25 531.01-0.15 530.22-0.15 529.47-0.15Q529.26-0.05 528.97-0.05L528.97-0.05 528.76-0.05 524.16-0.05 523.72-0.05Q523.16 0 521.47 0L521.47 0 520.16 0Q519.76 0.05 519.01 0.05L519.01 0.05 518.41 0.05ZM541.51-12.2Q541.16-14.65 541.16-14.65L541.16-14.65Q541.01-15.35 540.66-17.3L540.66-17.3Q540.56-17.8 540.16-20L540.16-20Q539.76-22.4 539.76-22.4L539.76-22.4Q539.62-23.4 539.47-24.15L539.47-24.15 539.41-24.8Q539.26-25.05 539.26-25.25L539.26-25.25 539.22-25.55Q539.16-25.45 539.16-25.25L539.16-25.25Q539.16-25.05 539.06-25L539.06-25 539.06-24.8 538.97-24.15Q538.91-23.8 538.84-23.38 538.76-22.95 538.66-22.45L538.66-22.45 538.41-21.05Q537.87-17.9 537.76-17.4L537.76-17.4Q537.72-16.85 537.51-15.75L537.51-15.75Q537.41-15.4 537.31-14.7L537.31-14.7 536.91-12.4 539.47-12.4 539.81-12.5 539.91-12.5Q540.51-12.5 540.81-12.4L540.81-12.4Q541.01-12.4 541.19-12.33 541.37-12.25 541.51-12.2L541.51-12.2ZM579.41 0.05L572.81 0 565.16-0.05Q564.31-0.05 564.06-1.15L564.06-1.15Q563.81-1.85 563.81-3.15L563.81-3.15Q563.81-7.5 563.71-10.9L563.71-10.9Q563.56-15.8 563.56-21.25L563.56-21.25 563.56-32.25Q563.56-32.7 563.99-33.13 564.41-33.55 564.86-33.55L564.86-33.55 570.66-33.5Q572.31-33.45 574.81-33.45L574.81-33.45Q578.56-33.45 580.66-33.5L580.66-33.5 582.51-33.55Q585.61-33.65 587.41-33.65L587.41-33.65Q590.51-33.65 593.41-32.45L593.41-32.45Q596.81-31.15 598.86-28L598.86-28Q601.31-24.2 601.31-18.65L601.31-18.65Q601.31-13.4 600.14-9.9 598.96-6.4 596.41-4.15L596.41-4.15Q593.86-1.95 589.74-0.95 585.61 0.05 579.41 0.05L579.41 0.05ZM579.81-6.65Q580.01-6.6 580.36-6.6L580.36-6.6Q580.76-6.6 581.46-6.7L581.46-6.7Q581.71-6.75 581.84-6.83 581.96-6.9 582.06-6.95L582.06-6.95Q582.66-7.65 583.21-9.9L583.21-9.9Q583.56-11.3 584.06-14.7L584.06-14.7Q584.31-17.6 584.31-19.7L584.31-19.7 584.31-20.65Q584.31-21.95 584.06-24.55L584.06-24.55Q583.71-27.15 583.06-28.2L583.06-28.2Q582.51-28.9 582.06-28.9L582.06-28.9Q581.61-28.9 581.26-28.8 580.91-28.7 580.81-28.65L580.81-28.65Q580.71-28.6 580.36-28.4L580.36-28.4 580.31-22.4Q580.31-21.6 580.21-20L580.21-20 580.16-18.8Q580.06-16.3 580.06-15.2L580.06-15.2 579.81-6.65ZM607.21 0.05Q606.56 0.05 606.31-0.95L606.31-0.95Q606.26-1.1 606.26-1.45L606.26-1.45Q606.26-1.95 606.46-2.95L606.46-2.95Q606.56-3.6 606.63-3.98 606.71-4.35 606.76-4.55L606.76-4.55Q608.26-11.6 609.71-16.95L609.71-16.95 613.21-32.75Q613.21-32.85 613.36-33.05 613.51-33.25 613.71-33.3L613.71-33.3 613.96-33.3Q613.96-33.25 614.11-33.25L614.11-33.25Q614.71-33.25 615.46-33.4L615.46-33.4Q616.21-33.55 616.81-33.55L616.81-33.55Q617.91-33.55 618.86-33.4L618.86-33.4Q619.31-33.4 619.86-33.35 620.41-33.3 621.01-33.3L621.01-33.3Q621.21-33.3 621.46-33.4L621.46-33.4 622.36-33.4 623.51-33.4 624.71-33.45Q625.06-33.5 625.56-33.5L625.56-33.5Q625.96-33.5 625.96-33.55L625.96-33.55 626.76-33.55 628.46-33.55 630.56-33.55Q633.36-33.55 634.26-33.45L634.26-33.45Q634.41-33.45 634.68-33.43 634.96-33.4 635.01-33.3L635.01-33.3Q635.36-33.3 635.71-33.35 636.06-33.4 636.36-33.4L636.36-33.4Q637.06-33.55 637.71-33.55L637.71-33.55Q638.01-33.55 638.31-33.4L638.31-33.4Q638.61-33.25 638.96-33.25L638.96-33.25 639.21-33.3 639.36-33.3Q639.51-33.2 639.68-33.02 639.86-32.85 639.86-32.75L639.86-32.75 643.36-16.95Q644.96-11.1 646.26-4.55L646.26-4.55Q646.26-4.25 646.46-3.9L646.46-3.9Q646.51-3.55 646.61-2.95 646.71-2.35 646.71-1.95L646.71-1.95Q646.76-1.75 646.76-1.4L646.76-1.4Q646.76-0.7 646.46-0.25L646.46-0.25Q646.26 0.05 645.86 0.05L645.86 0.05 645.21 0.05Q644.46 0.05 644.06 0L644.06 0 642.76 0 641.51 0 640.51 0Q640.11 0 640.11-0.05L640.11-0.05 636.96-0.05 636.96-0.15Q636.76-0.25 636.46-0.25L636.46-0.25Q636.46-0.25 636.43-0.23 636.41-0.2 636.36-0.15L636.36-0.15Q636.36-0.05 636.26-0.05L636.26-0.05 636.11-0.05 635.71-0.05Q635.46-0.15 634.71-0.15L634.71-0.15Q633.21-0.25 632.36-0.25L632.36-0.25Q632.06-0.7 631.73-2.05 631.41-3.4 631.06-5.05L631.06-5.05Q630.96-5.85 630.86-6.15L630.86-6.15Q629.81-5.95 628.11-5.95L628.11-5.95 626.56-5.95 625.11-5.95 624.76-4.35Q624.11-1.05 623.71-0.25L623.71-0.25Q623.51-0.25 623.21-0.15L623.21-0.15Q623.11-0.1 623.03-0.08 622.96-0.05 622.96-0.05L622.96-0.05 622.76-0.05Q622.46-0.05 622.31-0.15L622.31-0.15Q622.21-0.25 622.06-0.25L622.06-0.25 619.81-0.15 619.01-0.15 618.26-0.15Q618.06-0.05 617.76-0.05L617.76-0.05 617.56-0.05 612.96-0.05 612.51-0.05Q611.96 0 610.26 0L610.26 0 608.96 0Q608.56 0.05 607.81 0.05L607.81 0.05 607.21 0.05ZM630.31-12.2Q629.96-14.65 629.96-14.65L629.96-14.65Q629.81-15.35 629.46-17.3L629.46-17.3Q629.36-17.8 628.96-20L628.96-20Q628.56-22.4 628.56-22.4L628.56-22.4Q628.41-23.4 628.26-24.15L628.26-24.15 628.21-24.8Q628.06-25.05 628.06-25.25L628.06-25.25 628.01-25.55Q627.96-25.45 627.96-25.25L627.96-25.25Q627.96-25.05 627.86-25L627.86-25 627.86-24.8 627.76-24.15Q627.71-23.8 627.63-23.38 627.56-22.95 627.46-22.45L627.46-22.45 627.21-21.05Q626.66-17.9 626.56-17.4L626.56-17.4Q626.51-16.85 626.31-15.75L626.31-15.75Q626.21-15.4 626.11-14.7L626.11-14.7 625.71-12.4 628.26-12.4 628.61-12.5 628.71-12.5Q629.31-12.5 629.61-12.4L629.61-12.4Q629.81-12.4 629.98-12.33 630.16-12.25 630.31-12.2L630.31-12.2Z" opacity="1" transform="matrix(1,0,0,1,0,0)" fill="#ffffff" class="undefined-text-0" data-fill-palette-color="primary" id="text-0"></path></svg></g></svg></g><g transform="matrix(1,0,0,1,0,27.2745118307635)"><svg viewBox="0 0 137.48141164443942 13.636417430167597" height="13.636417430167597" width="137.48141164443942"><g transform="matrix(1,0,0,1,0,0)"><svg width="137.48141164443942" viewBox="3.5 -43.650001525878906 449.1099853515625 44.55000305175781" height="13.636417430167597" data-palette-color="#ffffff"><path d="M38.1-40.2L38.1-27.7 36.6-27.2 29.95-37.05 23.85-37.05 23.85-3.8 29.1-2 28.1 0 12.9 0 12.9-1.55 17.6-5.25 17.6-37.05 11.65-37.05 5-27.2 3.5-27.7 3.5-40.2 6.2-39.3 35.4-39.3 38.1-40.2ZM57.9-27Q59.55-27 60.8-26.1 62.05-25.2 62.75-23.6L62.75-23.6 59.45-19.45 57.55-19.45Q57.35-20.7 56.82-21.23 56.3-21.75 55.4-21.75L55.4-21.75Q54.3-21.75 53.07-21.18 51.85-20.6 50.3-19L50.3-19 50.3-4.1 57.3-1.95 56.3 0.05 39.85 0.05 39.85-1.5 44.3-5 44.3-19.15 39.85-21.75 39.85-23.3 48.4-27.5 49.95-21.35 55.15-26.65Q56.2-27.05 57.9-27.05L57.9-27.05 57.9-27ZM92.35-2L91.35 0 81.85 0 81.85-4.35 76.2 0.1Q75.2 0.5 73.7 0.5L73.7 0.5Q69.4 0.5 67.47-1.65 65.55-3.8 65.55-6.8L65.55-6.8Q65.55-8.6 66.85-10.35 68.15-12.1 70.55-13.65L70.55-13.65 81.85-13.65 81.85-16.85Q81.85-20.1 80.12-21.45 78.4-22.8 75.4-22.8L75.4-22.8Q72.3-22.8 67.8-19.05L67.8-19.05 66.3-20.95 73.5-26.65Q75.5-27.05 78.3-27.05L78.3-27.05Q82.85-27.05 85.35-24.83 87.85-22.6 87.85-18.35L87.85-18.35 87.85-3.75 92.35-2ZM75.3-3.75Q78.35-3.75 81.85-6.55L81.85-6.55 81.85-11.6 73-11.6Q72.35-10.8 72.07-10 71.8-9.2 71.8-8.25L71.8-8.25Q71.8-6.4 72.75-5.08 73.7-3.75 75.3-3.75L75.3-3.75ZM122.74-26.55L122.74-25 110.09 0 106.29 0 98.49-19.05 93.84-21.75 93.84-23.3 102.39-27.5 104.29-19.95 110.39-5.05 117.44-19.7 110.79-24.55 111.79-26.55 122.74-26.55ZM151.74-6.9L142.89 0.1Q140.89 0.5 138.09 0.5L138.09 0.5Q134.79 0.5 132.17-1.23 129.54-2.95 128.07-5.9 126.59-8.85 126.59-12.4L126.59-12.4Q126.59-16.25 128.94-19.63 131.29-23 134.82-25.03 138.34-27.05 141.64-27.05L141.64-27.05Q146.39-27.05 149.02-23.3 151.64-19.55 151.64-13.4L151.64-13.4 133.14-13.4Q133.44-9.15 135.47-6.45 137.49-3.75 140.99-3.75L140.99-3.75Q144.24-3.75 150.24-8.8L150.24-8.8 151.74-6.9ZM138.74-22.85Q133.34-22.85 133.09-15.45L133.09-15.45 144.79-15.45Q144.34-18.15 143.87-19.58 143.39-21 142.22-21.93 141.04-22.85 138.74-22.85L138.74-22.85ZM171.94-2L170.94 0 156.99 0 156.99-1.55 161.44-5.05 161.44-35.8 156.99-38.9 156.99-40.45 165.54-43.65 167.44-43.65 167.44-3.75 171.94-2ZM230.78-26.55L230.78-25 219.63 0 215.83 0 210.63-12.75 204.18 0 200.38 0 192.58-19.05 187.93-21.75 187.93-23.3 196.48-27.5 198.38-19.95 204.48-5.1 209.38-15.65 207.98-19.05 203.33-21.75 203.33-23.3 211.88-27.5 213.78-19.95 219.73-5.5 225.73-19.5 218.78-24.55 219.78-26.55 230.78-26.55ZM248.28-2L247.28 0 233.33 0 233.33-1.55 237.78-5.05 237.78-19.65 233.33-22.75 233.33-24.3 241.88-27.5 243.78-27.5 243.78-3.75 248.28-2ZM240.58-42.5Q242.08-42.5 243.05-41.4 244.03-40.3 244.03-38.65L244.03-38.65Q244.03-37.5 243.33-36.48 242.63-35.45 241.58-34.85 240.53-34.25 239.53-34.25L239.53-34.25Q238.03-34.25 237.05-35.35 236.08-36.45 236.08-38.1L236.08-38.1Q236.08-39.25 236.78-40.28 237.48-41.3 238.53-41.9 239.58-42.5 240.58-42.5L240.58-42.5ZM272.08-3.9L267.03 0.1Q265.88 0.5 264.23 0.5L264.23 0.5Q260.08 0.5 258.15-1.68 256.23-3.85 256.23-8.4L256.23-8.4 256.23-23 250.83-23 250.83-25.05 260.33-36.1 262.23-36.1 262.23-25.05 271.23-25.05 271.23-23 262.23-23 262.23-7.8Q262.23-3.75 266.13-3.75L266.13-3.75Q267.18-3.75 268.15-4.2 269.13-4.65 270.58-5.8L270.58-5.8 272.08-3.9ZM306.52-2L305.52 0 296.02 0 296.02-16.85Q296.02-19.6 295.18-20.7 294.32-21.8 292.13-21.8L292.13-21.8Q290.47-21.8 288.85-21.2 287.22-20.6 285.02-18.9L285.02-18.9 285.02-3.75 289.52-2 288.52 0 274.57 0 274.57-1.55 279.02-5.05 279.02-35.8 274.57-38.9 274.57-40.45 283.13-43.65 285.02-43.65 285.02-21.25 291.88-26.65Q292.93-27.05 294.63-27.05L294.63-27.05Q298.02-27.05 300.02-24.98 302.02-22.9 302.02-19.35L302.02-19.35 302.02-3.75 306.52-2ZM357.42 0.9L354.72 0 324.72 0 324.72-1.55 329.42-5.25 329.42-35.55 324.22-37.3 325.22-39.3 340.42-39.3 340.42-37.75 335.67-34.05 335.67-2.25 348.57-2.25 355.92-13.1 357.42-12.6 357.42 0.9ZM379.47-27.05Q382.77-27.05 385.39-25.33 388.02-23.6 389.49-20.65 390.97-17.7 390.97-14.15L390.97-14.15Q390.97-10.3 388.62-6.93 386.27-3.55 382.74-1.53 379.22 0.5 375.92 0.5L375.92 0.5Q372.62 0.5 369.99-1.23 367.37-2.95 365.89-5.9 364.42-8.85 364.42-12.4L364.42-12.4Q364.42-16.25 366.77-19.63 369.12-23 372.64-25.03 376.17-27.05 379.47-27.05L379.47-27.05ZM376.57-22.85Q370.92-22.85 370.92-14.8L370.92-14.8Q370.92-10.05 372.97-6.88 375.02-3.7 378.82-3.7L378.82-3.7Q384.47-3.7 384.47-11.8L384.47-11.8Q384.47-16.5 382.42-19.68 380.37-22.85 376.57-22.85L376.57-22.85ZM423.61-26.55L423.61-25 410.96 0 407.16 0 399.36-19.05 394.71-21.75 394.71-23.3 403.26-27.5 405.16-19.95 411.26-5.05 418.31-19.7 411.66-24.55 412.66-26.55 423.61-26.55ZM452.61-6.9L443.76 0.1Q441.76 0.5 438.96 0.5L438.96 0.5Q435.66 0.5 433.04-1.23 430.41-2.95 428.94-5.9 427.46-8.85 427.46-12.4L427.46-12.4Q427.46-16.25 429.81-19.63 432.16-23 435.69-25.03 439.21-27.05 442.51-27.05L442.51-27.05Q447.26-27.05 449.89-23.3 452.51-19.55 452.51-13.4L452.51-13.4 434.01-13.4Q434.31-9.15 436.34-6.45 438.36-3.75 441.86-3.75L441.86-3.75Q445.11-3.75 451.11-8.8L451.11-8.8 452.61-6.9ZM439.61-22.85Q434.21-22.85 433.96-15.45L433.96-15.45 445.66-15.45Q445.21-18.15 444.74-19.58 444.26-21 443.09-21.93 441.91-22.85 439.61-22.85L439.61-22.85Z" opacity="1" transform="matrix(1,0,0,1,0,0)" fill="#ffffff" class="undefined-text-1" data-fill-palette-color="secondary" id="text-1"></path></svg></g></svg></g></svg></g></svg></g><g><svg viewBox="0 0 148.01574206604872 148.01574206604872" height="148.01574206604872" width="148.01574206604872"><g><svg viewBox="0 0 148.01574206604872 148.01574206604872" height="148.01574206604872" width="148.01574206604872"><g transform="matrix(1,0,0,1,39.22253095847175,50.81718076689707)"><svg viewBox="0 0 69.57068014910521 46.38138053225458" height="46.38138053225458" width="69.57068014910521"><g><svg version="1.1" xmlns="http://www.w3.org/2000/svg" xmlns:xlink="http://www.w3.org/1999/xlink" x="0" y="0" viewBox="0 16.666000366210938 100 66.66799926757812" enable-background="new 0 16.666 100 66.668" xml:space="preserve" width="69.57068014910521" height="46.38138053225458" class="icon-x-0" data-fill-palette-color="accent" id="x-0"><path d="M73.334 36.667c0 0-4.854 5.123-8.979 9.479l-17.689-29.48L35 40.001l-10-10L0 83.334h100L73.334 36.667zM26.002 35.717l6.643 6.641 3.27 3.271 2.068-4.137 8.951-17.903 4.477 19.334-3.439 6.024-4.969-4.967-5 8.334-4.85-4.853-5.102 6.802-7.727-6.438L26.002 35.717zM5.242 80.001l13.621-29.056 9.75 8.125 4.9-6.532 5.148 5.149 4.998-8.334 5.035 5.033 3.82-6.686L60 80.001H5.242z" fill="#ffffff" data-fill-palette-color="accent"></path></svg></g></svg></g><path d="M12.851 53.005c-0.107 0.278-0.188 0.48-0.243 0.604v0l-0.176 0.456-0.172 0.446-0.204 0.532c-0.027 0.07-0.066 0.134-0.119 0.194v0c-0.059 0.079-0.103 0.153-0.129 0.223v0l-0.034 0.117c-0.059 0.079-0.124 0.105-0.194 0.078v0l-4.49-0.682c-1.267-0.219-2.424-0.424-3.469-0.616v0c-0.049 0.032-0.178 0.029-0.389-0.008v0c-0.104-0.033-0.263-0.09-0.479-0.174v0c-0.114-0.044-0.202-0.099-0.262-0.166-0.061-0.067-0.076-0.142-0.045-0.225v0l0.07-0.18 0.116-0.304c0.041-0.05 0.092-0.154 0.153-0.312v0l0.236-0.585 0.041-0.104 0.215-0.56 0.048-0.069c0.011-0.01 0.018-0.018 0.021-0.025 0.005-0.013 0.007-0.019 0.007-0.018v0l0.032 0.001c0.002-0.006 0.003-0.017 0.002-0.032-0.008-0.018-0.008-0.036-0.001-0.055v0c0.001-0.058 0.004-0.096 0.012-0.115v0l0.014-0.038 0.067-0.116c0.043-0.092 0.118-0.278 0.225-0.557v0c0.053-0.081 0.1-0.176 0.142-0.283v0c0.093-0.015 0.247-0.01 0.463 0.015 0.207 0.029 0.438 0.06 0.694 0.093v0c0.138 0.039 0.429 0.103 0.874 0.194v0c0.139 0.017 0.316 0.049 0.53 0.095v0l0.447 0.085c0.006 0.002 0.025 0.002 0.055-0.001 0.021 0.001 0.051 0.009 0.089 0.024v0l0.271 0.061c0.077 0.008 0.195 0.031 0.354 0.071v0c0.043 0.002 0.102 0.01 0.176 0.024 0.066 0.018 0.123 0.029 0.172 0.033v0c0.047 0.011 0.09 0.02 0.131 0.029 0.043 0.002 0.086 0.011 0.131 0.028v0l0.121 0.025 0.064 0.003c0.025 0.01 0.051 0.009 0.078-0.003v0l0.076 0.03-0.069-0.049-0.066-0.025-0.05-0.041c-0.025-0.01-0.061-0.031-0.107-0.063v0c-0.063-0.024-0.139-0.072-0.228-0.142v0c-0.046-0.032-0.095-0.066-0.147-0.101-0.055-0.028-0.106-0.055-0.154-0.081v0l-0.31-0.185c-0.043-0.038-0.089-0.071-0.138-0.096-0.055-0.028-0.088-0.045-0.1-0.05v0l-0.126-0.07c-1.219-0.76-1.986-1.259-2.301-1.496v0c-0.046-0.032-0.09-0.067-0.134-0.106-0.041-0.045-0.064-0.097-0.07-0.158v0c-0.01-0.011-0.012-0.045-0.005-0.1 0.011-0.047 0.015-0.085 0.011-0.116v0c0.045-0.193 0.084-0.331 0.116-0.413v0l0.084-0.218 0.146-0.38 0.195-0.448c0.036-0.074 0.074-0.164 0.115-0.272v0l0.015-0.038c-0.004-0.009-0.008-0.018-0.012-0.026-0.004-0.009-0.006-0.013-0.006-0.014v0c0.012-0.032 0.03-0.05 0.054-0.055v0c0.005-0.013 0.012-0.021 0.021-0.025 0.002-0.006 0.004-0.009 0.003-0.009v0c0.074-0.153 0.151-0.334 0.231-0.544v0c0.038-0.08 0.077-0.17 0.116-0.271v0c0.029-0.076 0.055-0.113 0.076-0.113v0c0.005-0.013 0.007-0.027 0.005-0.041-0.005-0.024-0.004-0.045 0.003-0.065v0c-0.012-0.026-0.004-0.074 0.023-0.144v0l0.029-0.075 0.058-0.152c0.054-0.139 0.105-0.217 0.156-0.235v0c0.286 0.03 0.633 0.102 1.04 0.215v0l0.303 0.063c0.527 0.123 0.973 0.211 1.337 0.264v0l0.173 0.033c0.193 0.045 0.312 0.077 0.356 0.094v0c0.085 0.025 0.232 0.057 0.443 0.094v0c0.201 0.063 0.349 0.094 0.444 0.095v0c0.095 0.037 0.205 0.072 0.33 0.105v0c0.049 0.004 0.084 0.007 0.106 0.008 0.028 0.003 0.045 0.006 0.051 0.009v0c0.044 0.017 0.088 0.027 0.131 0.028v0l0.079 0.02c-0.037-0.036-0.057-0.058-0.061-0.067v0l-0.124-0.048-0.135-0.073-0.304-0.172-0.392-0.227c-0.111-0.05-0.242-0.126-0.392-0.228v0l-0.328-0.169c-0.042-0.023-0.074-0.043-0.097-0.06-0.023-0.016-0.041-0.027-0.053-0.031v0c-0.221-0.143-0.388-0.247-0.501-0.313v0l-0.257-0.153c-0.597-0.375-1.004-0.648-1.222-0.819v0c-0.136-0.081-0.239-0.172-0.309-0.272v0c0.019-0.051 0.038-0.109 0.056-0.175 0.009-0.062 0.026-0.124 0.051-0.187v0c0.027-0.07 0.048-0.152 0.062-0.249v0l0.008-0.019c0.012-0.032 0.028-0.044 0.047-0.036v0c0 0 0.006 0.002 0.018 0.007 0.006 0.002 0.011 0 0.014-0.006v0c0.012-0.032 0.019-0.058 0.019-0.079-0.005-0.024-0.007-0.039-0.004-0.046v0l-0.021-0.03 0.27-0.702 0.037-0.095c0.037-0.095 0.065-0.178 0.085-0.25v0l0.125-0.323c0.063-0.165 0.098-0.282 0.103-0.353v0l0.113-0.294 0.077-0.2c0.027-0.07 0.089-0.108 0.185-0.113 0.091-0.009 0.19 0.008 0.298 0.049v0c0.093 0.079 0.237 0.178 0.43 0.296v0c0.099 0.045 0.212 0.092 0.339 0.141v0c1.236 0.81 2.33 1.566 3.28 2.266v0l3.396 2.365c-0.01 0.083-0.001 0.134 0.028 0.153v0l0.067 0.025-0.061 0.129c-0.027 0.07-0.044 0.125-0.053 0.166v0l-0.049 0.155-0.252 0.655c-0.132 0.342-0.232 0.594-0.302 0.756v0l-0.285 0.74-0.248 0.646-0.143 0.37c-0.04 0.086-0.091 0.208-0.152 0.367v0l-0.042 0.136c-0.059 0.079-0.124 0.105-0.193 0.078v0l-4.647-0.786 3.981 2.514c0.122 0.098 0.138 0.264 0.048 0.498v0l-0.237 0.617c-0.038 0.116-0.111 0.317-0.221 0.602zM17.607 41.867c-0.025 0.04-0.068 0.097-0.13 0.171-0.061 0.074-0.132 0.162-0.211 0.264v0l-0.207 0.218c-0.037 0.033-0.066 0.055-0.088 0.066-0.026 0.016-0.038 0.016-0.037 0.001v0c-0.208-0.128-0.489-0.286-0.843-0.474v0c-0.121-0.075-0.231-0.135-0.331-0.181-0.09-0.048-0.17-0.086-0.241-0.113v0l-0.53-0.304c-0.133-0.082-0.308-0.179-0.526-0.29v0l-0.369-0.216c-0.306-0.189-0.546-0.33-0.72-0.422v0c-0.165-0.094-0.516-0.307-1.052-0.639v0c-0.496-0.307-1.007-0.628-1.534-0.962-0.529-0.343-1.019-0.679-1.471-1.006v0c-0.086-0.054-0.1-0.193-0.04-0.419v0c0.058-0.132 0.172-0.336 0.344-0.613v0c0.4-0.646 0.681-1.126 0.843-1.44v0c0.567-0.941 0.998-1.651 1.295-2.13v0l0.321-0.519c0.415-0.644 0.748-1.132 1.001-1.462v0c0.079-0.127 0.284-0.123 0.616 0.01v0c0.072 0.013 0.234 0.073 0.486 0.181v0c0.13 0.048 0.293 0.106 0.491 0.173v0c0.055 0.026 0.103 0.052 0.144 0.077 0.043 0.034 0.067 0.053 0.072 0.056v0c0.074 0.061 0.087 0.13 0.041 0.205v0c-0.027 0.031-0.06 0.078-0.1 0.142v0c-0.207 0.334-0.433 0.757-0.677 1.268v0l-0.339 0.663c-0.135 0.283-0.244 0.503-0.325 0.66v0c-0.014 0.023 0.012 0.083 0.08 0.181v0c0.086 0.093 0.304 0.276 0.654 0.548v0l0.278 0.208c0.104 0.064 0.177 0.094 0.22 0.089 0.043-0.005 0.09-0.048 0.14-0.129v0l0.653-1.055c0.193-0.311 0.43-0.655 0.71-1.032v0l0.086-0.138c0.093-0.086 0.173-0.124 0.239-0.116v0c0.068-0.006 0.132 0.006 0.193 0.036v0l1.087 0.601 0.044 0.027c0.133 0.082 0.121 0.274-0.035 0.577v0c-0.063 0.192-0.239 0.522-0.528 0.989v0c-0.25 0.404-0.415 0.664-0.496 0.782v0c-0.143 0.231-0.226 0.371-0.248 0.42v0c-0.03 0.101-0.018 0.184 0.037 0.25 0.049 0.062 0.154 0.143 0.316 0.244v0c0.104 0.064 0.245 0.164 0.425 0.299v0c0.089 0.063 0.237 0.159 0.444 0.287v0c0.318-0.513 0.545-0.899 0.681-1.158v0c0.145-0.285 0.369-0.673 0.672-1.163v0c0.018-0.029 0.066-0.043 0.145-0.042v0c0.106 0.01 0.324 0.057 0.654 0.142v0c0.184 0.05 0.412 0.127 0.683 0.231v0c0.063 0.015 0.126 0.042 0.189 0.081v0c0.167 0.104 0.203 0.233 0.106 0.389v0c-0.128 0.208-0.293 0.493-0.493 0.855v0c-0.093 0.189-0.261 0.48-0.504 0.872v0c-0.514 0.83-0.898 1.458-1.153 1.883v0zM24.846 31.67c-0.613 0.743-1.059 1.28-1.341 1.61v0c-0.259 0.314-0.46 0.548-0.604 0.701v0l-0.739 0.881c-0.052 0.063-0.13 0.099-0.236 0.109v0c-0.105 0.01-0.192-0.013-0.259-0.069v0l-2.371-1.954-1.036-0.854-0.9-0.715c-0.293-0.242-0.658-0.556-1.095-0.943v0c-0.094-0.078-0.326-0.287-0.696-0.626v0l-0.244-0.201c-0.204-0.168-0.334-0.341-0.389-0.519v0c-0.038-0.093-0.024-0.178 0.04-0.257v0c0.293-0.356 0.618-0.734 0.975-1.134v0c0.053-0.053 0.124-0.135 0.214-0.245v0c0.194-0.235 0.344-0.406 0.45-0.513v0l0.485-0.589c0.022-0.026 0.091-0.11 0.207-0.251 0.116-0.141 0.225-0.236 0.327-0.284v0c0.176-0.075 0.395-0.004 0.656 0.211v0l0.073 0.087c0.021 0.017 0.072 0.068 0.152 0.152v0c0.083 0.112 0.151 0.19 0.204 0.233v0c0.078 0.065 0.189 0.134 0.33 0.207v0c0.098 0.063 0.159 0.105 0.186 0.126v0l0.083 0.043 1.508 1.242 0.706 0.583 0.667 0.55 0.126 0.103c0.058 0.047 0.12 0.046 0.187-0.003v0c0.022-0.017 0.064-0.062 0.125-0.135v0l0.647-0.785c0.159-0.203 0.4-0.501 0.723-0.894v0c0.065-0.078 0.142-0.124 0.232-0.138 0.09-0.014 0.162 0.001 0.214 0.045v0l2.057 1.695 0.023 0.019c0.058 0.047 0.081 0.115 0.071 0.203v0c-0.03 0.09-0.074 0.181-0.133 0.273v0c-0.057 0.111-0.169 0.269-0.338 0.473v0zM31.034 25.911c-0.447 0.416-0.84 0.745-1.18 0.987v0c-0.438 0.306-0.883 0.535-1.334 0.687v0c-0.058 0.017-0.148 0.04-0.269 0.07-0.121 0.029-0.227 0.05-0.319 0.06v0c-0.404 0.014-0.788-0.03-1.154-0.134v0c-0.23-0.018-0.493-0.092-0.791-0.223v0c-0.632-0.301-1.258-0.784-1.878-1.448v0c-0.721-0.774-1.195-1.607-1.422-2.498v0c-0.24-0.815-0.272-1.6-0.097-2.357 0.171-0.752 0.533-1.428 1.087-2.027v0l0.112-0.119 0.134-0.125c0.531-0.495 1.206-0.919 2.025-1.274v0c0.082-0.021 0.252-0.077 0.51-0.169 0.262-0.087 0.519-0.154 0.77-0.203v0l1.055 1.506-0.749 0.405c-0.269 0.149-0.498 0.311-0.686 0.487v0c-0.387 0.361-0.541 0.773-0.462 1.236v0c0.078 0.492 0.432 1.076 1.061 1.751v0c0.203 0.218 0.357 0.363 0.46 0.434v0c0.422 0.404 0.812 0.633 1.17 0.689v0c0.321 0.026 0.59-0.063 0.808-0.266v0c0.203-0.19 0.372-0.467 0.505-0.832v0c0.126-0.303 0.235-0.663 0.326-1.082v0l1.665 1.578c-0.032 0.493-0.178 1.018-0.438 1.575v0c-0.249 0.529-0.552 0.959-0.909 1.292zM38.412 20.367c-0.915 0.62-1.689 1.037-2.321 1.253v0c-0.874 0.305-1.682 0.328-2.423 0.068v0c-0.871-0.319-1.685-1.038-2.442-2.155v0c-0.536-0.792-0.903-1.527-1.1-2.204-0.197-0.678-0.231-1.322-0.104-1.932v0c0.131-0.605 0.431-1.184 0.899-1.739 0.47-0.564 1.126-1.131 1.969-1.702v0c0.657-0.445 1.343-0.762 2.058-0.951v0c0.884-0.23 1.702-0.214 2.452 0.047v0c0.911 0.293 1.712 0.95 2.404 1.972v0c0.806 1.191 1.254 2.239 1.343 3.145v0c0.057 0.846-0.164 1.626-0.663 2.341v0c-0.404 0.577-1.095 1.196-2.072 1.857zM37.561 19.31c0.095-0.065 0.131-0.175 0.108-0.331v0c-0.055-0.323-0.238-0.769-0.549-1.337v0c-0.286-0.519-0.575-0.995-0.868-1.427v0l-0.313-0.463-0.194-0.286c-0.232-0.343-0.534-0.74-0.906-1.193v0c-0.408-0.494-0.759-0.837-1.054-1.031v0c-0.149-0.087-0.269-0.101-0.359-0.04v0c-0.168 0.114-0.184 0.358-0.045 0.732v0c0.231 0.499 0.47 0.931 0.717 1.295v0c0.187 0.324 0.502 0.815 0.947 1.472v0c0.297 0.438 0.553 0.793 0.77 1.064v0c0.247 0.365 0.569 0.761 0.965 1.189v0c0.352 0.351 0.613 0.47 0.781 0.356zM44.727 16.324c-0.081 0.035-0.153 0.055-0.218 0.061v0l-0.252 0.109-0.233 0.102-0.093 0.04-0.63 0.107-0.101-0.079c-0.006 0.003-0.03-0.043-0.07-0.136v0c-0.051-0.118-0.101-0.215-0.148-0.291v0l-0.264-0.584c-0.06-0.122-0.147-0.313-0.26-0.574v0l-0.456-0.978c-0.092-0.212-0.21-0.511-0.356-0.899v0l-0.177-0.433c-0.1-0.282-0.286-0.737-0.558-1.366v0l-0.036-0.084-0.073-0.168c-0.029-0.017-0.059-0.059-0.089-0.128v0l-0.05-0.089c-0.092-0.212-0.176-0.441-0.253-0.688v0c-0.112-0.292-0.22-0.559-0.325-0.802v0l-0.163-0.351c-0.047-0.091-0.098-0.201-0.155-0.332v0c-0.003-0.006-0.014-0.016-0.035-0.029-0.021-0.013-0.035-0.029-0.043-0.048v0c-0.035-0.081-0.032-0.167 0.01-0.259 0.042-0.092 0.107-0.172 0.195-0.24v0c0.118-0.103 0.283-0.2 0.495-0.292v0l2.175-0.942 0.999-0.432c0.012-0.005 0.029-0.001 0.049 0.012 0.027 0.011 0.051 0.015 0.072 0.013v0c0.095 0.033 0.229 0.111 0.402 0.236v0c0.049 0.045 0.103 0.092 0.161 0.141 0.058 0.049 0.142 0.131 0.25 0.246v0c0.122 0.11 0.294 0.287 0.518 0.53v0l0.329 0.323c0.125 0.101 0.282 0.251 0.471 0.45v0c0.055 0.058 0.112 0.114 0.173 0.169 0.061 0.055 0.118 0.111 0.173 0.169v0c0.039 0.057 0.078 0.095 0.117 0.116 0.032 0.023 0.05 0.038 0.052 0.044v0c0.122 0.11 0.217 0.15 0.285 0.12v0c0.087-0.038 0.126-0.136 0.117-0.294v0c0.004-0.009 0.005-0.032 0.003-0.068-0.007-0.034-0.007-0.093 0.001-0.178v0l0.005-0.501 0.04-1.314 0.022-0.564c-0.005-0.079-0.01-0.143-0.016-0.192-0.009-0.055-0.008-0.096 0.002-0.123v0c-0.001-0.088 0.023-0.254 0.073-0.498v0c0.014-0.087 0.028-0.156 0.043-0.207v0c0.022-0.017 0.035-0.038 0.04-0.061-0.002-0.021 0.007-0.036 0.025-0.045v0l0.999-0.432 2.166-0.938 0.196-0.085 0.13-0.056 0.168-0.073 0.28-0.121c0.019-0.008 0.069 0.048 0.151 0.167v0l0.583 1.244c0.172 0.347 0.426 0.906 0.759 1.678v0l0.324 0.747c0.127 0.292 0.256 0.625 0.387 0.996 0.129 0.366 0.21 0.604 0.243 0.715v0l0.081 0.264 0.198 0.458c0.064 0.113 0.147 0.288 0.249 0.524v0c0.113 0.261 0.2 0.453 0.26 0.575v0c0.108 0.249 0.191 0.416 0.251 0.501v0l0.161 0.373 0.061 0.14 0.007 0.119-0.518 0.391-0.093 0.04-0.234 0.101-0.252 0.109c-0.054 0.046-0.122 0.086-0.202 0.121v0c-0.156 0.067-0.374 0.151-0.657 0.251v0l-0.33 0.132c-0.059 0.018-0.131 0.038-0.218 0.061-0.077 0.026-0.172 0.063-0.284 0.112v0l-0.511 0.177c-0.019 0.008-0.033 0.018-0.043 0.03v0l-0.102 0.044c-0.044 0.019-0.089-0.017-0.136-0.107v0c-0.125-0.153-0.277-0.434-0.454-0.846v0c-0.119-0.274-0.216-0.483-0.294-0.626v0l-0.312-0.696c-0.071-0.147-0.17-0.366-0.297-0.659v0c-0.03-0.068-0.076-0.089-0.137-0.062v0c-0.031 0.013-0.046 0.072-0.047 0.175v0l0.01 0.406 0.025 0.366c0.003 0.058 0.007 0.119 0.013 0.183 0.003 0.058 0.001 0.114-0.005 0.168v0l0 0.178c0.001 0.207-0.012 0.441-0.039 0.704v0c-0.031 0.287-0.11 0.539-0.238 0.757v0c-0.079 0.108-0.156 0.178-0.23 0.21v0l-0.196 0.085c-0.1 0.043-0.188 0.07-0.264 0.081v0l-0.28 0.121-0.262 0.114c-0.579-0.399-1.159-0.858-1.737-1.376v0l-0.402-0.392c-0.098-0.09-0.157-0.132-0.176-0.123v0c-0.056 0.024-0.069 0.071-0.039 0.139v0l0.262 0.607c0.259 0.597 0.439 1.04 0.542 1.328v0c0.175 0.456 0.278 0.778 0.307 0.965v0c0.042 0.115 0.042 0.181-0.002 0.2v0l-0.093 0.041-0.07 0.018c-0.281 0.136-0.504 0.252-0.67 0.346v0c-0.094 0.056-0.269 0.146-0.525 0.272-0.247 0.129-0.483 0.242-0.707 0.339zM56.784 11.541c-0.046 0.011-0.117 0.021-0.212 0.03-0.095 0.009-0.207 0.022-0.336 0.039v0l-0.301 0.009c-0.049-0.002-0.085-0.007-0.109-0.016-0.03-0.007-0.038-0.015-0.027-0.025v0c-0.057-0.237-0.145-0.548-0.264-0.93v0c-0.033-0.139-0.069-0.259-0.108-0.362-0.03-0.097-0.061-0.181-0.091-0.25v0l-0.162-0.589c-0.036-0.152-0.093-0.344-0.169-0.576v0l-0.11-0.413c-0.084-0.35-0.155-0.618-0.214-0.807v0c-0.051-0.183-0.15-0.581-0.296-1.195v0c-0.136-0.567-0.273-1.155-0.412-1.763-0.134-0.617-0.245-1.2-0.335-1.75v0c-0.024-0.099 0.065-0.207 0.267-0.326v0c0.134-0.053 0.359-0.117 0.676-0.193v0c0.739-0.177 1.276-0.32 1.613-0.428v0c1.065-0.269 1.872-0.469 2.419-0.6v0l0.593-0.142c0.748-0.165 1.329-0.276 1.741-0.333v0c0.145-0.035 0.288 0.112 0.429 0.441v0c0.042 0.06 0.115 0.217 0.218 0.471v0c0.058 0.126 0.134 0.282 0.227 0.469v0c0.021 0.058 0.037 0.11 0.048 0.155 0.006 0.054 0.01 0.085 0.011 0.092v0c0.009 0.095-0.029 0.154-0.115 0.174v0c-0.041 0.003-0.098 0.013-0.17 0.03v0c-0.383 0.092-0.84 0.233-1.374 0.423v0l-0.708 0.233c-0.295 0.106-0.527 0.186-0.696 0.239v0c-0.026 0.006-0.05 0.068-0.071 0.185v0c-0.005 0.127 0.021 0.41 0.078 0.849v0l0.051 0.344c0.028 0.119 0.06 0.191 0.094 0.218 0.034 0.027 0.098 0.029 0.19 0.007v0l1.207-0.289c0.356-0.085 0.767-0.163 1.231-0.232v0l0.158-0.038c0.127 0.005 0.21 0.033 0.251 0.086v0c0.052 0.043 0.089 0.097 0.112 0.162v0l0.348 1.192 0.012 0.05c0.036 0.152-0.107 0.28-0.431 0.385v0c-0.18 0.092-0.537 0.202-1.071 0.33v0c-0.462 0.111-0.763 0.179-0.903 0.206v0c-0.264 0.063-0.421 0.104-0.472 0.124v0c-0.093 0.05-0.143 0.118-0.15 0.203-0.009 0.079 0.009 0.211 0.052 0.395v0c0.028 0.119 0.059 0.289 0.092 0.512v0c0.019 0.107 0.056 0.279 0.113 0.517v0c0.587-0.141 1.02-0.255 1.299-0.343v0c0.304-0.101 0.736-0.218 1.296-0.352v0c0.033-0.008 0.077 0.016 0.132 0.073v0c0.068 0.081 0.19 0.268 0.365 0.561v0c0.095 0.165 0.203 0.38 0.322 0.645v0c0.034 0.055 0.06 0.118 0.077 0.191v0c0.046 0.191-0.02 0.308-0.199 0.35v0c-0.237 0.057-0.555 0.143-0.952 0.26v0c-0.2 0.069-0.524 0.157-0.972 0.264v0c-0.95 0.227-1.665 0.402-2.145 0.524v0zM70.181 9.39c-0.129 0.005-0.23-0.08-0.305-0.253v0c-0.153-0.3-0.245-0.856-0.274-1.67v0c-0.028-0.779-0.044-1.678-0.048-2.696v0c-0.005-0.326-0.02-0.831-0.045-1.515v0l-0.043-0.049-1.555 0.056c-0.122 0.004-0.219-0.06-0.292-0.192-0.073-0.133-0.134-0.321-0.184-0.564v0c-0.058-0.276-0.096-0.675-0.115-1.197v0l-0.007-0.203c-0.003-0.088 0.001-0.163 0.012-0.225v0l-0.007-0.203-0.005-0.132c-0.002-0.054 0.023-0.103 0.076-0.145 0.053-0.043 0.116-0.075 0.19-0.099v0c0.094-0.031 0.232-0.049 0.415-0.056v0l1.068-0.039c0.23-0.008 0.407-0.011 0.529-0.009v0l0.519 0.001 5.032-0.183c0.366-0.013 0.603-0.019 0.712-0.016v0c0.048 0.005 0.116 0.013 0.204 0.023 0.082 0.004 0.143 0.019 0.185 0.044v0c0.062 0.025 0.101 0.061 0.116 0.108 0.015 0.04 0.024 0.101 0.027 0.182v0l0.084 2.308c0.004 0.102-0.034 0.174-0.114 0.218v0c-0.053 0.022-0.128 0.035-0.222 0.038v0l-0.448 0.017-0.457 0.016c-0.217 0.008-0.383 0.004-0.499-0.012v0l-0.417 0.015c-0.081 0.003-0.128 0.022-0.141 0.056v0c0.001 0.014-0.002 0.027-0.008 0.041-0.006 0.014-0.009 0.031-0.009 0.052v0l0.008 0.203 0.017 0.478c0.005 0.142 0.002 0.251-0.008 0.326v0c0.01 0.264 0.014 0.855 0.014 1.77v0l-0.015 0.429c-0.006 0.387-0.013 0.669-0.02 0.845v0l0.049 1.332c0.012 0.319-0.049 0.521-0.182 0.607v0c-0.12 0.052-0.201 0.082-0.241 0.09v0l-0.355 0.034c-0.366 0.013-0.623 0.033-0.771 0.058v0l-1.464 0.064c-0.183 0.013-0.518 0.029-1.006 0.047zM82.581 10.245c-1.097-0.134-1.955-0.327-2.574-0.58v0c-0.86-0.344-1.484-0.857-1.872-1.54v0c-0.447-0.813-0.589-1.889-0.426-3.229v0c0.116-0.949 0.322-1.744 0.619-2.384 0.297-0.64 0.693-1.149 1.19-1.526v0c0.496-0.37 1.103-0.61 1.82-0.721 0.725-0.117 1.592-0.113 2.602 0.01v0c0.788 0.096 1.513 0.308 2.177 0.635v0c0.818 0.407 1.424 0.956 1.818 1.646v0c0.495 0.819 0.667 1.841 0.518 3.066v0c-0.174 1.427-0.525 2.512-1.053 3.253v0c-0.513 0.675-1.192 1.119-2.037 1.33v0c-0.683 0.169-1.611 0.183-2.782 0.04zM82.633 8.888c0.114 0.014 0.214-0.046 0.299-0.178v0c0.171-0.28 0.325-0.736 0.464-1.368v0c0.125-0.579 0.22-1.128 0.283-1.647v0l0.067-0.555 0.042-0.343c0.05-0.411 0.083-0.909 0.101-1.494v0c0.017-0.64-0.023-1.13-0.118-1.47v0c-0.055-0.164-0.137-0.252-0.245-0.266v0c-0.202-0.025-0.373 0.149-0.514 0.522v0c-0.153 0.528-0.256 1.011-0.31 1.448v0c-0.072 0.367-0.156 0.944-0.252 1.732v0c-0.064 0.525-0.104 0.961-0.119 1.307v0c-0.053 0.438-0.071 0.948-0.053 1.531v0c0.035 0.496 0.154 0.757 0.355 0.781zM96.337 13.55c-0.578-0.197-1.053-0.389-1.427-0.573v0c-0.476-0.242-0.888-0.526-1.235-0.852v0c-0.043-0.043-0.105-0.111-0.189-0.204-0.083-0.093-0.151-0.177-0.204-0.253v0c-0.203-0.349-0.345-0.709-0.426-1.08v0c-0.093-0.211-0.152-0.478-0.177-0.803v0c-0.033-0.699 0.097-1.479 0.39-2.339v0c0.342-1.001 0.852-1.812 1.53-2.433v0c0.605-0.596 1.282-0.995 2.033-1.198 0.744-0.205 1.51-0.204 2.3 0.001v0l0.157 0.043 0.173 0.059c0.687 0.235 1.38 0.629 2.079 1.183v0c0.057 0.063 0.187 0.186 0.39 0.37 0.2 0.19 0.381 0.385 0.543 0.583v0l-0.83 1.641-0.71-0.469c-0.258-0.167-0.509-0.292-0.753-0.375v0c-0.501-0.171-0.936-0.112-1.308 0.177v0c-0.397 0.302-0.744 0.889-1.042 1.761v0c-0.096 0.282-0.152 0.486-0.166 0.61v0c-0.156 0.563-0.175 1.015-0.055 1.357v0c0.129 0.295 0.334 0.49 0.617 0.587v0c0.263 0.09 0.587 0.107 0.971 0.053v0c0.326-0.032 0.696-0.106 1.108-0.224v0l-0.605 2.212c-0.45 0.205-0.981 0.324-1.595 0.358v0c-0.584 0.03-1.106-0.034-1.569-0.192zM100.322 14.769c-0.102-0.054-0.131-0.173-0.087-0.357v0c0.001-0.03 0.017-0.075 0.049-0.135v0c0.045-0.084 0.128-0.197 0.25-0.34v0c0.075-0.098 0.135-0.174 0.178-0.228 0.047-0.06 0.081-0.103 0.103-0.129v0c0.862-1.032 1.647-1.924 2.355-2.678v0l2.937-3.451c0.01-0.018 0.037-0.034 0.083-0.048 0.043-0.023 0.081-0.03 0.114-0.02v0l0.063 0.034c-0.003 0.006 0.007 0.015 0.031 0.028v0c0.102 0.054 0.219 0.101 0.352 0.14v0c0.139 0.043 0.259 0.091 0.36 0.146v0c0.18 0.095 0.341 0.196 0.485 0.303v0c0.072 0.038 0.15 0.087 0.233 0.146 0.093 0.057 0.187 0.111 0.282 0.162v0c0.036 0.019 0.077 0.029 0.122 0.03v0l0.225 0.12 0.288 0.152 0.301 0.149c0.06 0.017 0.132 0.047 0.216 0.091v0c0.066 0.035 0.1 0.049 0.104 0.044v0l0.197 0.105 0.423 0.224 0.521 0.277c0.461 0.245 0.762 0.416 0.902 0.513v0c0.024 0.013 0.057 0.03 0.099 0.052 0.045 0.031 0.065 0.058 0.062 0.079v0c0.06 0.032 0.118 0.059 0.175 0.082 0.066 0.02 0.123 0.042 0.171 0.068v0c0.133 0.04 0.253 0.088 0.361 0.145v0c0.048 0.025 0.089 0.063 0.125 0.112v0c0.035 0.049 0.083 0.09 0.142 0.122v0l0.068 0.025 0.036 0.019c0.014 0.031 0.03 0.066 0.047 0.106 0.014 0.046 0.016 0.078 0.007 0.095v0l-1.212 4.367c-0.248 1.104-0.551 2.253-0.908 3.445v0c-0.025 0.048-0.039 0.11-0.04 0.186v0c-0.017 0.06-0.046 0.144-0.089 0.253-0.033 0.105-0.067 0.191-0.101 0.257v0c-0.013 0.039-0.034 0.086-0.063 0.139v0c-0.064 0.12-0.138 0.203-0.224 0.249v0c-0.055 0.032-0.116 0.031-0.182-0.004v0l-0.162-0.086c-0.126-0.067-0.22-0.121-0.283-0.161v0l-0.323-0.172-0.306-0.162-0.242-0.129c-0.066-0.035-0.097-0.055-0.094-0.062v0l-0.782-0.414 0.014-0.027c-0.026-0.037-0.064-0.068-0.111-0.094v0c0 0-0.005 0.001-0.014 0.004 0 0-0.009 0.003-0.028 0.008v0c-0.01 0.018-0.02 0.024-0.032 0.018v0l-0.045-0.024-0.099-0.052c-0.026-0.037-0.102-0.089-0.228-0.156v0c-0.236-0.148-0.426-0.261-0.57-0.337v0c-0.01-0.097 0.017-0.271 0.081-0.521 0.067-0.256 0.145-0.533 0.234-0.832v0c0.052-0.141 0.082-0.241 0.09-0.298v0c-0.19-0.062-0.425-0.168-0.707-0.318v0l-0.378-0.2-0.359-0.191-0.3 0.348c-0.397 0.488-0.664 0.78-0.799 0.877v0c-0.03-0.016-0.074-0.028-0.131-0.035v0c-0.021-0.004-0.039-0.005-0.055-0.006-0.015 0-0.023-0.001-0.023-0.001v0l-0.053-0.028c-0.048-0.025-0.079-0.053-0.094-0.085v0c-0.008-0.028-0.025-0.048-0.049-0.06v0l-0.571-0.269-0.198-0.105-0.188-0.1c-0.039 0.002-0.083-0.01-0.132-0.035v0l-0.053-0.028-1.133-0.601-0.116-0.062c-0.093-0.042-0.28-0.137-0.562-0.287v0l-0.315-0.167c-0.069-0.029-0.167-0.077-0.292-0.144v0zM107.644 14.775c0.153-0.433 0.23-0.65 0.23-0.65v0c0.036-0.127 0.114-0.366 0.231-0.718v0c0.027-0.093 0.102-0.337 0.228-0.732v0c0.144-0.43 0.216-0.645 0.215-0.645v0c0.065-0.18 0.117-0.337 0.158-0.47v0l0.067-0.171c-0.002-0.055 0.007-0.1 0.026-0.136v0l0.03-0.077c-0.022 0.012-0.04 0.032-0.056 0.063v0c-0.019 0.036-0.036 0.054-0.052 0.053v0l-0.028 0.054-0.113 0.148c-0.041 0.048-0.086 0.104-0.136 0.169-0.05 0.066-0.102 0.134-0.156 0.206v0l-0.248 0.317c-0.366 0.473-0.579 0.744-0.639 0.812v0c-0.06 0.084-0.154 0.21-0.282 0.38v0c-0.047 0.044-0.111 0.122-0.193 0.232v0l-0.399 0.514 0.638 0.339 0.095 0.016 0.027 0.014c0.096 0.051 0.166 0.1 0.21 0.146v0c0.03 0.016 0.057 0.038 0.081 0.066 0.024 0.028 0.046 0.051 0.066 0.07zM112.092 21.659c-0.075-0.059-0.132-0.117-0.173-0.175v0l-0.215-0.17-0.176-0.138-0.096-0.076-0.401-0.51 0.037-0.113c-0.011-0.008 0.015-0.053 0.079-0.133v0c0.156-0.231 0.348-0.49 0.574-0.778v0c0.16-0.202 0.284-0.372 0.374-0.507v0c0.16-0.202 0.274-0.358 0.343-0.469v0l0.309-0.391c0.227-0.365 0.498-0.752 0.811-1.161 0.309-0.404 0.615-0.797 0.918-1.181v0l0.897-1.106c0.107-0.114 0.264-0.302 0.47-0.563v0c0.201-0.256 0.345-0.449 0.431-0.579v0c0.113-0.187 0.26-0.275 0.439-0.263v0c0.104 0.021 0.246 0.104 0.428 0.247v0c0.272 0.214 0.625 0.484 1.059 0.809v0l0.259 0.164c0.467 0.316 0.757 0.519 0.869 0.607v0c0.101 0.08 0.169 0.142 0.203 0.186v0c0.097 0.085 0.156 0.153 0.176 0.204 0.021 0.051 0.026 0.115 0.016 0.194-0.01 0.078-0.018 0.137-0.023 0.176v0c-0.002 0.189-0.013 0.383-0.032 0.584v0c-0.022 0.302-0.037 0.54-0.046 0.715v0l-0.141 1.675-0.071 0.813c0.151-0.192 0.279-0.337 0.383-0.437v0l0.806-1.022 0.643-0.75c0.051-0.054 0.093-0.091 0.124-0.109 0.022-0.017 0.045-0.025 0.07-0.023 0.019-0.002 0.036-0.002 0.051 0.001v0c0.144-0.007 0.276 0.006 0.396 0.04v0c0.087 0.043 0.152 0.081 0.195 0.115v0l0.623 0.491 0.136 0.107c0.05 0.057 0.147 0.142 0.291 0.255v0c0.165 0.13 0.291 0.234 0.377 0.31v0l0.375 0.296 0.312 0.246 0.128 0.101c0.192 0.151 0.297 0.281 0.314 0.39v0c0.034 0.122-0.027 0.281-0.182 0.478v0l-0.096 0.105-0.147 0.17c-0.044 0.034-0.096 0.089-0.154 0.163v0l-0.107 0.136-0.07 0.088-0.058 0.122-0.277 0.352c-0.106 0.124-0.277 0.335-0.511 0.633v0l-0.643 0.815c-0.162 0.183-0.377 0.446-0.645 0.786v0l-0.504 0.639-0.296 0.376-1.366 1.734-0.368 0.384c-0.166 0.145-0.307 0.203-0.421 0.173v0l-0.198-0.143-0.177-0.153-0.496-0.39-0.647-0.51-0.671-0.529-0.168-0.133c-0.156-0.097-0.283-0.227-0.379-0.389v0c-0.048-0.081-0.085-0.188-0.111-0.32v0l0.116-2.448c0.008-0.011 0.036-0.209 0.081-0.596v0c0.013-0.137 0.018-0.258 0.015-0.364v0c0.009-0.045 0.012-0.081 0.009-0.11-0.005-0.038-0.009-0.059-0.015-0.063v0c-0.064-0.05-0.119-0.046-0.165 0.012v0l-0.195 0.248c-0.065 0.061-0.165 0.177-0.3 0.347v0l-0.34 0.431-0.327 0.416c-0.078 0.077-0.169 0.182-0.274 0.315v0l-0.177 0.223-0.125 0.16-0.037 0.062c-0.046 0.059-0.105 0.073-0.176 0.043v0c-0.058-0.003-0.123-0.041-0.194-0.115v0c-0.259-0.187-0.466-0.329-0.623-0.426v0c-0.099-0.061-0.262-0.172-0.489-0.333-0.231-0.156-0.442-0.31-0.634-0.461zM119.679 27.936c-0.076-0.087-0.061-0.208 0.045-0.365v0c0.011-0.028 0.043-0.065 0.094-0.109v0c0.071-0.063 0.189-0.139 0.353-0.23v0c0.105-0.065 0.188-0.115 0.248-0.149 0.065-0.039 0.112-0.067 0.142-0.085v0c1.172-0.66 2.222-1.217 3.15-1.671v0l3.968-2.187c0.015-0.013 0.047-0.019 0.095-0.016 0.048-0.006 0.086 0.001 0.114 0.022v0l0.047 0.053c-0.005 0.004 0.001 0.017 0.019 0.038v0c0.076 0.087 0.169 0.172 0.279 0.255v0c0.114 0.089 0.21 0.177 0.286 0.264v0c0.134 0.153 0.249 0.304 0.345 0.455v0c0.054 0.061 0.109 0.134 0.167 0.219 0.067 0.086 0.136 0.17 0.207 0.252v0c0.027 0.031 0.061 0.054 0.103 0.071v0l0.168 0.191 0.215 0.245 0.229 0.245c0.05 0.037 0.107 0.091 0.17 0.163v0c0.049 0.056 0.076 0.082 0.082 0.077v0l0.147 0.168 0.316 0.359 0.389 0.443c0.345 0.392 0.565 0.659 0.662 0.8v0c0.018 0.02 0.043 0.048 0.074 0.084 0.031 0.045 0.041 0.077 0.03 0.096v0c0.045 0.051 0.09 0.097 0.135 0.138 0.055 0.042 0.1 0.083 0.137 0.124v0c0.11 0.084 0.205 0.172 0.285 0.264v0c0.036 0.041 0.061 0.09 0.077 0.149v0c0.015 0.059 0.046 0.113 0.09 0.164v0l0.055 0.047 0.027 0.031c0.003 0.034 0.005 0.072 0.007 0.115-0.003 0.048-0.012 0.079-0.028 0.092v0l-2.679 3.655c-0.623 0.945-1.313 1.912-2.068 2.901v0c-0.041 0.036-0.075 0.089-0.104 0.159v0c-0.037 0.05-0.094 0.119-0.172 0.206-0.068 0.087-0.13 0.155-0.186 0.204v0c-0.026 0.032-0.062 0.068-0.108 0.108v0c-0.102 0.09-0.201 0.141-0.299 0.154v0c-0.063 0.01-0.119-0.013-0.168-0.069v0l-0.121-0.137c-0.094-0.107-0.163-0.191-0.207-0.251v0l-0.242-0.276-0.228-0.259-0.182-0.207c-0.049-0.056-0.071-0.086-0.066-0.09v0l-0.584-0.665 0.023-0.02c-0.012-0.044-0.035-0.086-0.071-0.127v0c0 0-0.005 0-0.015-0.001 0 0-0.01-0.001-0.028-0.002v0c-0.015 0.013-0.027 0.015-0.037 0.005v0l-0.033-0.039-0.074-0.084c-0.012-0.044-0.064-0.119-0.158-0.226v0c-0.168-0.222-0.306-0.395-0.414-0.517v0c0.025-0.094 0.112-0.247 0.26-0.459 0.153-0.216 0.324-0.448 0.514-0.695v0c0.099-0.114 0.162-0.196 0.189-0.247v0c-0.155-0.125-0.338-0.308-0.549-0.547v0l-0.282-0.321-0.269-0.306-0.403 0.219c-0.544 0.316-0.897 0.495-1.058 0.537v0c-0.022-0.025-0.059-0.052-0.11-0.079v0c-0.019-0.011-0.035-0.019-0.049-0.025-0.014-0.006-0.021-0.009-0.021-0.008v0l-0.041-0.046c-0.036-0.041-0.055-0.078-0.057-0.112v0c0.002-0.029-0.006-0.053-0.024-0.074v0l-0.44-0.453-0.147-0.168-0.141-0.161c-0.038-0.012-0.074-0.038-0.111-0.079v0l-0.04-0.046-0.846-0.963-0.087-0.099c-0.072-0.072-0.214-0.228-0.424-0.467v0l-0.235-0.267c-0.054-0.052-0.129-0.131-0.223-0.238v0zM126.525 30.533c0.297-0.351 0.445-0.526 0.445-0.527v0c0.079-0.105 0.236-0.302 0.47-0.589v0c0.058-0.078 0.215-0.279 0.472-0.604v0c0.287-0.352 0.43-0.527 0.43-0.527v0c0.125-0.146 0.229-0.274 0.313-0.384v0l0.124-0.136c0.018-0.052 0.042-0.091 0.073-0.118v0l0.054-0.061c-0.024 0.003-0.049 0.016-0.074 0.038v0c-0.031 0.027-0.053 0.037-0.067 0.032v0l-0.046 0.04-0.158 0.098c-0.055 0.03-0.117 0.067-0.187 0.111-0.07 0.044-0.143 0.089-0.218 0.137v0l-0.345 0.208c-0.51 0.313-0.805 0.491-0.885 0.534v0c-0.085 0.057-0.218 0.142-0.399 0.256v0c-0.059 0.025-0.147 0.075-0.261 0.149v0l-0.556 0.339 0.477 0.542 0.083 0.049 0.021 0.023c0.072 0.082 0.12 0.152 0.145 0.211v0c0.022 0.025 0.04 0.055 0.051 0.09 0.012 0.034 0.025 0.064 0.038 0.089zM129.634 40.797l-0.945-1.592-1.092-1.836c-0.084-0.14-0.046-0.281 0.114-0.424v0c0.086-0.107 0.234-0.224 0.442-0.35v0c0.692-0.416 1.306-0.797 1.842-1.142v0c0.771-0.495 1.592-1.004 2.464-1.528v0l2.633-1.583c0.076-0.045 0.165-0.055 0.267-0.03 0.112 0.028 0.19 0.08 0.235 0.155v0l0.825 1.392c0.149 0.274 0.342 0.609 0.58 1.004v0c0.36 0.599 0.647 1.063 0.861 1.393v0l0.276 0.44c0.314 0.484 0.559 0.871 0.734 1.161v0c0.297 0.494 0.489 1.031 0.577 1.612v0c0.119 0.672 0.024 1.323-0.287 1.952v0c-0.37 0.753-1 1.396-1.889 1.931v0c-0.837 0.503-1.593 0.831-2.269 0.984-0.67 0.149-1.307 0.129-1.912-0.061v0c-0.597-0.203-1.174-0.584-1.732-1.143-0.555-0.568-1.13-1.347-1.724-2.335zM131.296 39.929c0.012 0.033 0.035 0.078 0.07 0.136v0c0.038 0.064 0.097 0.148 0.175 0.251v0c0.036 0.034 0.067 0.059 0.092 0.075 0.022 0.01 0.041 0.023 0.058 0.036v0c0.166 0.027 0.456-0.025 0.869-0.154v0c0.262-0.078 0.687-0.239 1.276-0.482v0c0.489-0.239 0.903-0.46 1.24-0.663v0l0.227-0.136c0.209-0.126 0.508-0.333 0.896-0.622v0c0.384-0.31 0.628-0.567 0.734-0.773v0c0.058-0.154 0.066-0.265 0.024-0.335v0c-0.045-0.076-0.093-0.134-0.141-0.176-0.047-0.051-0.081-0.082-0.103-0.092v0c-0.013-0.008-0.054-0.031-0.124-0.068v0l-1.444 0.856c-0.128 0.077-0.325 0.183-0.591 0.319v0l-0.298 0.156c-0.408 0.229-0.699 0.397-0.874 0.501v0zM133.038 46.925c-0.041-0.108 0.016-0.216 0.17-0.326v0c0.021-0.022 0.063-0.045 0.126-0.069v0c0.089-0.034 0.226-0.064 0.411-0.091v0c0.121-0.024 0.216-0.042 0.285-0.053 0.075-0.014 0.129-0.023 0.163-0.03v0c1.329-0.206 2.507-0.36 3.536-0.459v0l4.484-0.656c0.019-0.007 0.05-0.001 0.094 0.019 0.048 0.011 0.081 0.031 0.099 0.06v0l0.025 0.067c-0.006 0.002-0.005 0.016 0.005 0.041v0c0.041 0.108 0.098 0.22 0.171 0.338v0c0.076 0.124 0.134 0.239 0.175 0.347v0c0.072 0.19 0.127 0.373 0.164 0.547v0c0.029 0.076 0.055 0.164 0.079 0.264 0.032 0.104 0.067 0.207 0.106 0.308v0c0.014 0.038 0.038 0.072 0.071 0.103v0l0.091 0.238 0.115 0.305 0.129 0.31c0.034 0.052 0.068 0.123 0.102 0.211v0c0.026 0.07 0.043 0.103 0.049 0.102v0l0.079 0.209 0.17 0.447 0.209 0.552c0.185 0.488 0.298 0.815 0.339 0.981v0c0.01 0.025 0.023 0.06 0.04 0.104 0.013 0.053 0.011 0.086-0.006 0.1v0c0.024 0.063 0.05 0.122 0.078 0.177 0.037 0.059 0.065 0.113 0.084 0.164v0c0.073 0.117 0.132 0.233 0.175 0.347v0c0.019 0.051 0.026 0.106 0.02 0.167v0c-0.006 0.06 0.003 0.122 0.027 0.186v0l0.035 0.063 0.014 0.038c-0.009 0.033-0.021 0.07-0.034 0.111-0.02 0.044-0.039 0.069-0.058 0.076v0l-3.792 2.482c-0.915 0.666-1.9 1.33-2.955 1.991v0c-0.051 0.019-0.102 0.057-0.153 0.112v0c-0.052 0.034-0.13 0.078-0.233 0.132-0.094 0.058-0.176 0.099-0.246 0.126v0c-0.036 0.021-0.082 0.042-0.139 0.064v0c-0.127 0.048-0.238 0.061-0.333 0.039v0c-0.063-0.012-0.107-0.054-0.134-0.123v0l-0.065-0.172c-0.051-0.133-0.086-0.236-0.106-0.308v0l-0.13-0.342-0.122-0.323-0.098-0.257c-0.026-0.07-0.036-0.106-0.03-0.108v0l-0.313-0.828 0.028-0.011c0.005-0.045-0.003-0.093-0.022-0.144v0c0 0-0.004-0.002-0.013-0.006 0 0-0.009-0.004-0.026-0.011v0c-0.019 0.007-0.031 0.004-0.036-0.009v0l-0.018-0.047-0.04-0.105c0.005-0.045-0.018-0.134-0.069-0.268v0c-0.08-0.267-0.148-0.477-0.205-0.629v0c0.057-0.08 0.192-0.192 0.404-0.338 0.219-0.148 0.461-0.305 0.725-0.471v0c0.132-0.072 0.22-0.127 0.264-0.165v0c-0.101-0.172-0.209-0.407-0.322-0.705v0l-0.152-0.399-0.144-0.381-0.454 0.064c-0.62 0.105-1.013 0.149-1.18 0.132v0c-0.012-0.032-0.037-0.069-0.075-0.113v0c-0.014-0.017-0.026-0.03-0.037-0.041-0.011-0.01-0.017-0.015-0.017-0.015v0l-0.022-0.057c-0.019-0.051-0.024-0.092-0.014-0.125v0c0.012-0.026 0.013-0.052 0.003-0.078v0l-0.252-0.578-0.08-0.21-0.075-0.199c-0.031-0.025-0.056-0.062-0.076-0.113v0l-0.021-0.057-0.455-1.199-0.047-0.124c-0.042-0.093-0.12-0.288-0.233-0.586v0l-0.126-0.333c-0.033-0.067-0.074-0.168-0.125-0.3v0zM138.537 51.759c0.401-0.225 0.601-0.337 0.601-0.337v0c0.111-0.071 0.327-0.2 0.648-0.387v0c0.082-0.053 0.299-0.186 0.653-0.4v0c0.392-0.228 0.588-0.343 0.588-0.342v0c0.168-0.093 0.311-0.176 0.428-0.25v0l0.164-0.084c0.035-0.042 0.071-0.071 0.109-0.084v0l0.073-0.039c-0.024-0.005-0.052-0.002-0.084 0.01v0c-0.038 0.014-0.063 0.017-0.073 0.006v0l-0.057 0.022-0.182 0.036c-0.062 0.009-0.133 0.022-0.215 0.038-0.081 0.016-0.165 0.034-0.252 0.052v0l-0.396 0.074c-0.588 0.114-0.926 0.177-1.016 0.19v0c-0.1 0.023-0.254 0.056-0.463 0.099v0c-0.064 0.003-0.163 0.018-0.297 0.047v0l-0.639 0.123 0.256 0.675 0.061 0.075 0.01 0.029c0.038 0.101 0.059 0.184 0.062 0.248v0c0.012 0.032 0.018 0.066 0.017 0.103-0.001 0.037 0.001 0.069 0.004 0.096zM5.114 99.025c-0.107-0.278-0.182-0.482-0.224-0.612v0l-0.175-0.455-0.172-0.446-0.205-0.532c-0.027-0.07-0.041-0.144-0.042-0.223v0c-0.009-0.098-0.027-0.182-0.054-0.252v0l-0.053-0.111c-0.009-0.098 0.022-0.161 0.091-0.187v0l3.788-2.505c1.087-0.687 2.083-1.311 2.987-1.87v0c0.015-0.056 0.113-0.141 0.294-0.255v0c0.099-0.045 0.256-0.109 0.471-0.192v0c0.114-0.044 0.216-0.061 0.307-0.053 0.091 0.009 0.152 0.054 0.183 0.137v0l0.07 0.18 0.117 0.304c0.003 0.064 0.035 0.176 0.095 0.334v0l0.218 0.592 0.04 0.104 0.215 0.56 0.011 0.084c-0.001 0.015-0.001 0.026 0.001 0.032 0.005 0.013 0.007 0.019 0.007 0.019v0l-0.024 0.02c0.002 0.006 0.009 0.015 0.02 0.025 0.018 0.008 0.03 0.021 0.037 0.04v0c0.038 0.043 0.061 0.074 0.069 0.094v0l0.015 0.038 0.028 0.13c0.03 0.097 0.099 0.285 0.206 0.564v0c0.015 0.096 0.043 0.198 0.085 0.305v0c-0.059 0.074-0.177 0.173-0.353 0.3-0.173 0.117-0.365 0.25-0.578 0.397v0c-0.128 0.064-0.388 0.211-0.778 0.441v0c-0.114 0.08-0.267 0.175-0.457 0.285v0l-0.389 0.237c-0.006 0.002-0.02 0.015-0.04 0.037-0.017 0.014-0.044 0.028-0.082 0.043v0l-0.241 0.136c-0.062 0.046-0.166 0.107-0.311 0.185v0c-0.033 0.027-0.082 0.061-0.146 0.1-0.061 0.031-0.111 0.061-0.151 0.091v0c-0.042 0.023-0.081 0.046-0.116 0.066-0.033 0.027-0.072 0.049-0.116 0.067v0l-0.107 0.063-0.049 0.041c-0.025 0.01-0.044 0.028-0.056 0.054v0l-0.076 0.029 0.083-0.01 0.067-0.026 0.064-0.003c0.025-0.01 0.066-0.018 0.121-0.025v0c0.063-0.024 0.152-0.04 0.265-0.047v0c0.056-0.007 0.114-0.015 0.176-0.024 0.059-0.016 0.116-0.03 0.169-0.044v0l0.354-0.071c0.058-0.001 0.113-0.007 0.167-0.02 0.059-0.016 0.095-0.026 0.108-0.031v0l0.14-0.032c1.414-0.254 2.318-0.398 2.711-0.433v0c0.056-0.007 0.112-0.011 0.17-0.011 0.06 0.006 0.113 0.029 0.158 0.07v0c0.015 0.001 0.039 0.025 0.071 0.071 0.023 0.042 0.046 0.073 0.069 0.093v0c0.096 0.174 0.16 0.302 0.191 0.384v0l0.084 0.219 0.146 0.379 0.157 0.463c0.023 0.078 0.055 0.171 0.096 0.279v0l0.015 0.038c0.009 0.004 0.018 0.008 0.026 0.012 0.009 0.004 0.013 0.006 0.014 0.006v0c0.012 0.032 0.011 0.057-0.003 0.077v0c0.005 0.013 0.005 0.023 0.001 0.032 0.002 0.006 0.004 0.009 0.004 0.01v0c0.048 0.163 0.113 0.349 0.193 0.558v0c0.025 0.085 0.058 0.178 0.096 0.279v0c0.029 0.076 0.036 0.121 0.019 0.134v0c0.005 0.013 0.013 0.024 0.024 0.034 0.02 0.014 0.034 0.031 0.041 0.05v0c0.026 0.012 0.053 0.052 0.08 0.122v0l0.029 0.076 0.059 0.152c0.054 0.139 0.068 0.232 0.041 0.278v0c-0.233 0.17-0.538 0.349-0.915 0.538v0l-0.267 0.157c-0.473 0.262-0.863 0.496-1.169 0.701v0l-0.15 0.09c-0.174 0.096-0.283 0.152-0.327 0.17v0c-0.08 0.038-0.211 0.114-0.393 0.227v0c-0.191 0.088-0.322 0.164-0.392 0.228v0c-0.095 0.037-0.2 0.084-0.315 0.143v0c-0.039 0.03-0.067 0.051-0.084 0.065-0.023 0.016-0.037 0.025-0.044 0.028v0c-0.044 0.017-0.083 0.039-0.116 0.066v0l-0.072 0.039c0.052 0.002 0.082 0.005 0.09 0.009v0l0.124-0.048 0.149-0.036 0.341-0.077 0.444-0.094c0.116-0.038 0.264-0.069 0.443-0.094v0l0.356-0.094c0.047-0.011 0.084-0.018 0.112-0.021 0.028-0.003 0.048-0.008 0.061-0.013v0c0.26-0.042 0.454-0.077 0.581-0.103v0l0.294-0.059c0.694-0.122 1.179-0.193 1.455-0.212v0c0.155-0.031 0.293-0.033 0.412-0.006v0c0.019 0.051 0.045 0.106 0.075 0.168 0.035 0.052 0.064 0.11 0.089 0.173v0c0.027 0.07 0.067 0.145 0.12 0.226v0l0.007 0.019c0.012 0.032 0.009 0.051-0.01 0.059v0c0 0-0.006 0.002-0.019 0.007-0.006 0.002-0.008 0.007-0.006 0.013v0c0.012 0.032 0.025 0.056 0.039 0.072 0.02 0.014 0.031 0.024 0.033 0.031v0l0.036 0.008 0.271 0.702 0.036 0.095c0.037 0.095 0.071 0.176 0.105 0.244v0l0.124 0.322c0.063 0.165 0.117 0.275 0.16 0.331v0l0.113 0.294 0.077 0.2c0.027 0.07 0.006 0.139-0.061 0.209-0.061 0.067-0.146 0.122-0.253 0.163v0c-0.122 0.003-0.295 0.026-0.519 0.069v0c-0.104 0.033-0.219 0.073-0.345 0.122v0c-1.46 0.228-2.778 0.401-3.954 0.519v0l-4.104 0.523c-0.048-0.069-0.089-0.1-0.124-0.094v0l-0.066 0.025-0.042-0.136c-0.027-0.07-0.051-0.122-0.071-0.158v0l-0.068-0.148-0.253-0.655c-0.132-0.342-0.226-0.596-0.283-0.764v0l-0.285-0.74-0.248-0.646-0.143-0.37c-0.028-0.091-0.072-0.216-0.133-0.374v0l-0.06-0.129c-0.009-0.098 0.022-0.161 0.091-0.188v0l3.974-2.533-4.639 0.805c-0.156 0.009-0.28-0.103-0.37-0.337v0l-0.238-0.617c-0.05-0.111-0.13-0.31-0.24-0.594zM10.575 111.537c-0.025-0.04-0.057-0.104-0.095-0.193-0.038-0.088-0.086-0.19-0.142-0.306v0l-0.104-0.283c-0.013-0.048-0.02-0.083-0.019-0.108-0.003-0.03 0.002-0.041 0.016-0.034v0c0.208-0.128 0.474-0.31 0.8-0.543v0c0.121-0.075 0.224-0.147 0.309-0.215 0.083-0.059 0.153-0.114 0.209-0.165v0l0.508-0.339c0.133-0.082 0.297-0.196 0.495-0.342v0l0.358-0.233c0.306-0.189 0.538-0.341 0.698-0.457v0c0.158-0.106 0.505-0.325 1.041-0.656v0c0.496-0.307 1.011-0.622 1.545-0.944 0.543-0.32 1.062-0.61 1.557-0.868v0c0.086-0.054 0.217-0.003 0.393 0.151v0c0.092 0.11 0.224 0.304 0.395 0.581v0c0.4 0.646 0.704 1.112 0.913 1.397v0c0.59 0.927 1.033 1.63 1.329 2.109v0l0.321 0.519c0.392 0.659 0.679 1.175 0.863 1.548v0c0.079 0.127-0.016 0.309-0.284 0.546v0c-0.043 0.059-0.17 0.177-0.379 0.355v0c-0.101 0.094-0.226 0.215-0.374 0.362v0c-0.048 0.038-0.093 0.069-0.133 0.095-0.05 0.023-0.077 0.036-0.083 0.039v0c-0.088 0.038-0.155 0.02-0.201-0.055v0c-0.016-0.038-0.043-0.089-0.083-0.152v0c-0.207-0.334-0.485-0.725-0.833-1.171v0l-0.442-0.6c-0.193-0.247-0.342-0.443-0.446-0.585v0c-0.014-0.023-0.08-0.026-0.198-0.009v0c-0.122 0.035-0.382 0.149-0.782 0.34v0l-0.31 0.156c-0.104 0.064-0.163 0.117-0.178 0.158-0.015 0.041 0.003 0.102 0.054 0.182v0l0.653 1.056c0.193 0.311 0.395 0.677 0.606 1.096v0l0.086 0.138c0.035 0.122 0.034 0.21-0.003 0.265v0c-0.025 0.063-0.064 0.115-0.118 0.157v0l-1.024 0.705-0.043 0.027c-0.133 0.082-0.3-0.014-0.501-0.288v0c-0.144-0.142-0.36-0.447-0.65-0.914v0c-0.25-0.404-0.409-0.668-0.478-0.792v0c-0.143-0.231-0.231-0.367-0.266-0.41v0c-0.077-0.072-0.157-0.098-0.24-0.079-0.078 0.016-0.197 0.074-0.359 0.174v0c-0.104 0.064-0.256 0.147-0.457 0.247v0c-0.096 0.051-0.248 0.141-0.455 0.27v0c0.318 0.513 0.562 0.888 0.733 1.126v0c0.191 0.257 0.438 0.63 0.741 1.12v0c0.018 0.029 0.009 0.078-0.028 0.149v0c-0.056 0.09-0.195 0.264-0.418 0.522v0c-0.127 0.142-0.298 0.312-0.511 0.508v0c-0.041 0.049-0.094 0.094-0.157 0.133v0c-0.167 0.104-0.299 0.077-0.396-0.078v0c-0.128-0.208-0.31-0.482-0.545-0.823v0c-0.128-0.168-0.313-0.448-0.556-0.84v0c-0.514-0.83-0.904-1.454-1.17-1.872v0zM18.464 122.642c-0.613-0.743-1.054-1.284-1.325-1.624v0c-0.259-0.314-0.45-0.556-0.573-0.727v0l-0.723-0.893c-0.052-0.063-0.073-0.147-0.063-0.252v0c0.01-0.105 0.049-0.186 0.118-0.242v0l2.37-1.954 1.036-0.854 0.875-0.747c0.293-0.242 0.671-0.54 1.134-0.895v0c0.094-0.078 0.344-0.266 0.748-0.564v0l0.243-0.201c0.204-0.168 0.399-0.263 0.584-0.283v0c0.098-0.019 0.18 0.01 0.244 0.088v0c0.293 0.356 0.603 0.747 0.928 1.174v0c0.042 0.062 0.109 0.148 0.199 0.257v0c0.194 0.235 0.333 0.415 0.418 0.539v0l0.485 0.589c0.022 0.026 0.091 0.11 0.207 0.251 0.116 0.141 0.189 0.266 0.217 0.375v0c0.04 0.187-0.071 0.388-0.333 0.604v0l-0.099 0.056c-0.021 0.017-0.08 0.057-0.178 0.12v0c-0.126 0.06-0.216 0.112-0.268 0.155v0c-0.078 0.065-0.167 0.16-0.266 0.285v0c-0.08 0.084-0.134 0.136-0.159 0.158v0l-0.058 0.074-1.507 1.242-0.707 0.582-0.667 0.55-0.126 0.104c-0.058 0.047-0.068 0.109-0.032 0.185v0c0.012 0.025 0.048 0.075 0.109 0.148v0l0.647 0.784c0.169 0.195 0.415 0.488 0.739 0.881v0c0.065 0.078 0.095 0.163 0.091 0.255-0.004 0.091-0.032 0.158-0.084 0.201v0l-2.057 1.695-0.024 0.02c-0.058 0.047-0.128 0.057-0.212 0.03v0c-0.082-0.046-0.163-0.107-0.243-0.183v0c-0.099-0.077-0.232-0.217-0.4-0.421v0zM24.939 129.683c-0.447-0.416-0.803-0.785-1.068-1.106v0c-0.336-0.415-0.596-0.843-0.78-1.283v0c-0.021-0.057-0.051-0.145-0.088-0.263-0.038-0.119-0.066-0.223-0.083-0.314v0c-0.043-0.402-0.026-0.788 0.052-1.16v0c0.001-0.23 0.057-0.499 0.166-0.805v0c0.255-0.652 0.692-1.311 1.311-1.976v0c0.721-0.774 1.518-1.306 2.391-1.596v0c0.796-0.297 1.577-0.385 2.344-0.263 0.762 0.117 1.462 0.43 2.099 0.94v0l0.126 0.103 0.134 0.125c0.531 0.495 1.003 1.138 1.415 1.929v0c0.027 0.081 0.095 0.246 0.205 0.497 0.105 0.255 0.191 0.507 0.257 0.754v0l-1.427 1.159-0.458-0.718c-0.168-0.258-0.346-0.475-0.534-0.65v0c-0.387-0.361-0.809-0.485-1.265-0.373v0c-0.485 0.113-1.042 0.507-1.672 1.182v0c-0.203 0.218-0.337 0.381-0.4 0.49v0c-0.373 0.45-0.574 0.855-0.604 1.216v0c-0.003 0.322 0.105 0.584 0.323 0.787v0c0.203 0.19 0.492 0.338 0.865 0.445v0c0.311 0.104 0.678 0.187 1.103 0.248v0l-1.456 1.772c-0.494 0.003-1.028-0.105-1.602-0.324v0c-0.545-0.211-0.996-0.483-1.353-0.816zM33.399 136.088c-0.915-0.62-1.59-1.183-2.025-1.691v0c-0.608-0.698-0.929-1.44-0.963-2.224v0c-0.027-0.928 0.337-1.95 1.094-3.068v0c0.536-0.792 1.082-1.405 1.639-1.839 0.556-0.434 1.141-0.706 1.755-0.814v0c0.61-0.103 1.26-0.04 1.948 0.189 0.698 0.227 1.468 0.626 2.311 1.196v0c0.657 0.445 1.206 0.964 1.648 1.558v0c0.542 0.736 0.831 1.5 0.866 2.294v0c0.067 0.954-0.246 1.942-0.938 2.964v0c-0.806 1.191-1.613 1.995-2.421 2.415v0c-0.764 0.367-1.571 0.451-2.42 0.254v0c-0.685-0.161-1.517-0.572-2.494-1.234zM34.065 134.905c0.095 0.065 0.211 0.057 0.347-0.023v0c0.28-0.171 0.625-0.506 1.038-1.006v0c0.376-0.458 0.71-0.903 1.002-1.336v0l0.314-0.463 0.194-0.286c0.232-0.343 0.489-0.771 0.771-1.284v0c0.307-0.562 0.495-1.016 0.565-1.362v0c0.026-0.171-0.006-0.287-0.096-0.347v0c-0.168-0.114-0.4-0.038-0.696 0.229v0c-0.377 0.4-0.689 0.782-0.936 1.147v0c-0.232 0.294-0.57 0.769-1.015 1.426v0c-0.297 0.438-0.531 0.808-0.702 1.11v0c-0.247 0.365-0.496 0.811-0.746 1.337v0c-0.195 0.458-0.208 0.743-0.04 0.858zM41.408 140.39c-0.081-0.035-0.145-0.074-0.193-0.117v0l-0.252-0.109-0.233-0.101-0.094-0.04-0.508-0.387-0.012-0.127c-0.006-0.003 0.011-0.051 0.051-0.144v0c0.051-0.118 0.088-0.221 0.111-0.307v0l0.245-0.592c0.048-0.127 0.128-0.321 0.242-0.583v0l0.4-1.001c0.092-0.212 0.229-0.503 0.412-0.875v0l0.195-0.425c0.137-0.266 0.342-0.713 0.615-1.342v0l0.036-0.084 0.073-0.168c-0.008-0.033 0.003-0.084 0.032-0.152v0l0.031-0.097c0.092-0.212 0.201-0.43 0.329-0.656v0c0.136-0.281 0.257-0.543 0.362-0.786v0l0.144-0.359c0.034-0.096 0.08-0.209 0.137-0.34v0c0.003-0.006 0.002-0.021-0.003-0.045-0.004-0.024-0.003-0.045 0.006-0.064v0c0.035-0.081 0.1-0.138 0.195-0.17 0.095-0.033 0.198-0.04 0.309-0.022v0c0.156 0.016 0.339 0.069 0.551 0.161v0l2.175 0.942 0.999 0.432c0.012 0.005 0.021 0.02 0.025 0.045 0.011 0.027 0.024 0.047 0.04 0.061v0c0.042 0.092 0.076 0.243 0.102 0.455v0c0.001 0.067 0.003 0.138 0.008 0.214 0.004 0.076 0.002 0.193-0.008 0.351v0c0.003 0.164-0.008 0.41-0.033 0.74v0l-0.011 0.46c0.012 0.16 0.01 0.378-0.005 0.652v0c-0.005 0.079-0.006 0.16-0.005 0.242 0.001 0.082 0 0.163-0.005 0.242v0c-0.015 0.068-0.016 0.122-0.004 0.164 0.005 0.039 0.006 0.062 0.004 0.068v0c0.003 0.164 0.039 0.261 0.107 0.291v0c0.087 0.038 0.185-0.001 0.294-0.117v0c0.009-0.004 0.026-0.018 0.052-0.044 0.02-0.028 0.063-0.069 0.13-0.121v0l0.369-0.339 0.986-0.87 0.426-0.37c0.055-0.058 0.097-0.106 0.129-0.144 0.034-0.044 0.064-0.072 0.091-0.082v0c0.063-0.061 0.201-0.157 0.413-0.287v0c0.073-0.05 0.133-0.086 0.181-0.11v0c0.028 0.005 0.052 0 0.072-0.013 0.014-0.016 0.031-0.02 0.049-0.012v0l0.999 0.432 2.166 0.938 0.196 0.085 0.131 0.057 0.168 0.073 0.28 0.121c0.019 0.008 0.012 0.083-0.02 0.224v0l-0.508 1.277c-0.135 0.363-0.369 0.93-0.704 1.701v0l-0.323 0.747c-0.127 0.292-0.281 0.614-0.462 0.964-0.178 0.344-0.297 0.566-0.355 0.667v0l-0.137 0.24-0.198 0.457c-0.039 0.124-0.109 0.304-0.212 0.54v0c-0.113 0.261-0.194 0.456-0.241 0.583v0c-0.108 0.249-0.173 0.424-0.195 0.526v0l-0.161 0.373-0.061 0.14-0.082 0.087-0.639-0.111-0.094-0.04-0.233-0.101-0.252-0.11c-0.07-0.008-0.146-0.03-0.227-0.065v0c-0.156-0.067-0.366-0.17-0.632-0.307v0l-0.323-0.15c-0.053-0.03-0.118-0.069-0.193-0.117-0.072-0.039-0.164-0.082-0.276-0.131v0l-0.478-0.251c-0.019-0.008-0.036-0.012-0.051-0.011v0l-0.103-0.045c-0.044-0.019-0.048-0.076-0.014-0.172v0c0.026-0.196 0.127-0.499 0.305-0.91v0c0.119-0.274 0.204-0.488 0.257-0.643v0l0.293-0.704c0.058-0.152 0.151-0.374 0.278-0.667v0c0.03-0.068 0.013-0.116-0.049-0.143v0c-0.031-0.013-0.084 0.015-0.159 0.086v0l-0.29 0.285-0.249 0.269c-0.04 0.042-0.082 0.087-0.125 0.134-0.04 0.042-0.082 0.079-0.126 0.112v0l-0.13 0.121c-0.15 0.142-0.33 0.293-0.54 0.454v0c-0.23 0.174-0.469 0.289-0.714 0.344v0c-0.133 0.016-0.236 0.008-0.312-0.024v0l-0.196-0.085c-0.1-0.043-0.18-0.089-0.24-0.137v0l-0.28-0.121-0.261-0.113c-0.105-0.696-0.167-1.432-0.185-2.209v0l0.01-0.561c-0.001-0.134-0.011-0.204-0.03-0.212v0c-0.056-0.024-0.099-0.002-0.129 0.066v0l-0.262 0.607c-0.259 0.597-0.458 1.032-0.598 1.304v0c-0.213 0.44-0.377 0.735-0.494 0.884v0c-0.055 0.109-0.104 0.155-0.147 0.135v0l-0.094-0.04-0.061-0.038c-0.292-0.112-0.529-0.196-0.711-0.252v0c-0.105-0.031-0.291-0.096-0.558-0.197-0.263-0.092-0.507-0.186-0.731-0.284zM54.859 145.553c-0.046-0.011-0.114-0.034-0.203-0.07-0.089-0.035-0.195-0.075-0.317-0.118v0l-0.273-0.128c-0.043-0.024-0.073-0.045-0.089-0.063-0.023-0.02-0.027-0.031-0.013-0.034v0c0.057-0.237 0.119-0.554 0.185-0.95v0c0.033-0.139 0.056-0.262 0.068-0.37 0.017-0.101 0.028-0.189 0.032-0.265v0l0.122-0.598c0.036-0.152 0.073-0.349 0.11-0.591v0l0.09-0.418c0.084-0.35 0.142-0.622 0.174-0.816v0c0.038-0.186 0.13-0.586 0.277-1.199v0c0.136-0.567 0.28-1.153 0.432-1.759 0.16-0.61 0.325-1.181 0.493-1.712v0c0.024-0.099 0.152-0.155 0.386-0.169v0c0.143 0.013 0.373 0.058 0.69 0.133v0c0.739 0.177 1.283 0.293 1.632 0.349v0c1.072 0.243 1.881 0.429 2.428 0.561v0l0.594 0.142c0.742 0.192 1.31 0.355 1.702 0.491v0c0.145 0.035 0.206 0.231 0.184 0.588v0c0.011 0.072 0.004 0.245-0.02 0.519v0c-0.005 0.138-0.008 0.312-0.009 0.52v0c-0.008 0.061-0.017 0.114-0.028 0.161-0.019 0.051-0.03 0.08-0.031 0.087v0c-0.035 0.089-0.096 0.124-0.182 0.103v0c-0.038-0.016-0.093-0.033-0.166-0.051v0c-0.383-0.092-0.855-0.173-1.416-0.245v0l-0.736-0.113c-0.311-0.04-0.554-0.073-0.729-0.101v0c-0.026-0.006-0.075 0.038-0.147 0.132v0c-0.061 0.111-0.167 0.375-0.315 0.793v0l-0.111 0.329c-0.028 0.119-0.033 0.198-0.014 0.237 0.018 0.039 0.074 0.07 0.166 0.092v0l1.207 0.289c0.356 0.085 0.757 0.202 1.202 0.351v0l0.159 0.038c0.111 0.061 0.172 0.125 0.184 0.19v0c0.027 0.062 0.036 0.127 0.027 0.195v0l-0.23 1.221-0.012 0.049c-0.036 0.152-0.223 0.201-0.558 0.149v0c-0.202 0-0.571-0.063-1.105-0.191v0c-0.462-0.111-0.761-0.186-0.898-0.226v0c-0.264-0.063-0.423-0.098-0.477-0.103v0c-0.105 0.003-0.181 0.04-0.226 0.113-0.044 0.066-0.088 0.192-0.132 0.376v0c-0.028 0.119-0.079 0.285-0.151 0.498v0c-0.032 0.104-0.076 0.275-0.133 0.512v0c0.587 0.141 1.025 0.235 1.313 0.283v0c0.316 0.048 0.755 0.139 1.316 0.273v0c0.033 0.008 0.061 0.05 0.085 0.125v0c0.024 0.103 0.048 0.325 0.071 0.665v0c0.01 0.191 0.008 0.431-0.006 0.721v0c0.006 0.064 0 0.132-0.017 0.205v0c-0.046 0.191-0.158 0.266-0.336 0.223v0c-0.237-0.057-0.56-0.124-0.967-0.2v0c-0.209-0.029-0.538-0.097-0.986-0.205v0c-0.95-0.227-1.666-0.395-2.15-0.504v0zM69.878 147.946c-0.129-0.005-0.224-0.096-0.285-0.275v0c-0.131-0.31-0.182-0.872-0.152-1.685v0c0.028-0.779 0.078-1.677 0.149-2.693v0c0.019-0.325 0.041-0.83 0.066-1.514v0l-0.039-0.052-1.556-0.057c-0.122-0.004-0.214-0.076-0.277-0.214-0.063-0.138-0.11-0.33-0.142-0.575v0c-0.037-0.28-0.046-0.68-0.027-1.202v0l0.007-0.204c0.003-0.088 0.013-0.162 0.029-0.223v0l0.007-0.203 0.005-0.132c0.002-0.054 0.031-0.101 0.087-0.139 0.056-0.039 0.121-0.067 0.196-0.085v0c0.096-0.024 0.235-0.032 0.419-0.025v0l1.067 0.039c0.23 0.008 0.407 0.018 0.528 0.029v0l0.518 0.04 5.032 0.183c0.366 0.013 0.603 0.025 0.711 0.037v0c0.047 0.009 0.115 0.021 0.203 0.038 0.081 0.01 0.141 0.029 0.181 0.057v0c0.06 0.029 0.096 0.068 0.107 0.116 0.012 0.041 0.017 0.102 0.014 0.184v0l-0.084 2.307c-0.004 0.102-0.047 0.171-0.13 0.209v0c-0.055 0.018-0.13 0.026-0.225 0.023v0l-0.447-0.017-0.458-0.016c-0.217-0.008-0.383-0.024-0.497-0.049v0l-0.416-0.015c-0.081-0.003-0.129 0.012-0.145 0.045v0c-0.001 0.014-0.004 0.027-0.011 0.041-0.007 0.013-0.011 0.03-0.012 0.05v0l-0.008 0.203-0.017 0.478c-0.005 0.142-0.016 0.251-0.032 0.325v0c-0.01 0.264-0.048 0.853-0.116 1.767v0l-0.046 0.426c-0.034 0.386-0.062 0.666-0.082 0.842v0l-0.048 1.331c-0.012 0.319-0.087 0.516-0.226 0.593v0c-0.124 0.043-0.206 0.067-0.247 0.072v0l-0.356 0.007c-0.366-0.013-0.624-0.013-0.774 0.003v0l-1.464-0.044c-0.183 0-0.519-0.009-1.007-0.026zM83.663 147.682c-1.097 0.134-1.976 0.152-2.637 0.055v0c-0.917-0.127-1.646-0.476-2.188-1.045v0c-0.63-0.682-1.026-1.692-1.189-3.032v0c-0.116-0.949-0.107-1.77 0.028-2.463 0.134-0.693 0.397-1.282 0.788-1.767v0c0.393-0.478 0.924-0.857 1.594-1.137 0.675-0.287 1.518-0.493 2.528-0.615v0c0.788-0.096 1.543-0.065 2.266 0.092v0c0.892 0.199 1.612 0.586 2.16 1.161v0c0.677 0.676 1.09 1.626 1.239 2.852v0c0.174 1.427 0.094 2.564-0.24 3.411v0c-0.335 0.779-0.888 1.372-1.658 1.78v0c-0.623 0.329-1.52 0.564-2.691 0.708zM83.388 146.352c0.114-0.014 0.197-0.096 0.247-0.245v0c0.099-0.313 0.139-0.792 0.122-1.439v0c-0.018-0.592-0.058-1.148-0.121-1.666v0l-0.068-0.556-0.042-0.343c-0.05-0.411-0.137-0.902-0.262-1.475v0c-0.138-0.625-0.294-1.091-0.468-1.398v0c-0.093-0.146-0.193-0.212-0.301-0.199v0c-0.202 0.025-0.327 0.235-0.374 0.63v0c-0.022 0.549-0.006 1.043 0.048 1.48v0c0.018 0.374 0.075 0.954 0.171 1.742v0c0.064 0.525 0.13 0.958 0.199 1.298v0c0.053 0.438 0.159 0.937 0.316 1.498v0c0.153 0.473 0.331 0.698 0.533 0.673zM99.228 143.962c-0.578 0.197-1.071 0.337-1.48 0.419v0c-0.525 0.1-1.024 0.128-1.499 0.082v0c-0.06-0.008-0.151-0.024-0.273-0.046-0.122-0.023-0.228-0.048-0.316-0.075v0c-0.374-0.152-0.707-0.35-0.999-0.594v0c-0.202-0.11-0.413-0.285-0.631-0.526v0c-0.454-0.533-0.828-1.229-1.122-2.089v0c-0.342-1.001-0.435-1.955-0.279-2.861v0c0.114-0.842 0.405-1.572 0.875-2.191 0.463-0.617 1.07-1.086 1.82-1.407v0l0.151-0.062 0.173-0.059c0.687-0.235 1.476-0.347 2.369-0.336v0c0.084 0.014 0.262 0.032 0.534 0.054 0.275 0.028 0.537 0.071 0.786 0.129v0l0.348 1.805-0.849 0.065c-0.306 0.026-0.582 0.08-0.825 0.163v0c-0.501 0.171-0.809 0.484-0.926 0.94v0c-0.129 0.481-0.045 1.158 0.253 2.032v0c0.096 0.282 0.177 0.477 0.242 0.583v0c0.221 0.541 0.483 0.91 0.787 1.107v0c0.282 0.154 0.564 0.183 0.847 0.087v0c0.263-0.09 0.53-0.274 0.8-0.552v0c0.239-0.225 0.485-0.51 0.74-0.855v0l0.874 2.12c-0.231 0.437-0.578 0.857-1.042 1.259v0c-0.443 0.381-0.896 0.65-1.358 0.808zM104.209 141.604c-0.102 0.054-0.217 0.011-0.344-0.128v0c-0.025-0.018-0.053-0.056-0.085-0.116v0c-0.045-0.084-0.092-0.216-0.142-0.397v0c-0.039-0.117-0.069-0.209-0.088-0.275-0.023-0.072-0.039-0.125-0.05-0.158v0c-0.371-1.292-0.671-2.443-0.898-3.451v0l-1.212-4.366c-0.01-0.018-0.007-0.05 0.006-0.096 0.005-0.049 0.021-0.084 0.048-0.106v0l0.063-0.033c0.003 0.006 0.017 0.003 0.04-0.01v0c0.102-0.054 0.206-0.125 0.314-0.213v0c0.113-0.091 0.221-0.163 0.322-0.217v0c0.18-0.095 0.354-0.172 0.522-0.231v0c0.072-0.038 0.156-0.075 0.253-0.111 0.099-0.045 0.196-0.093 0.292-0.144v0c0.036-0.019 0.067-0.047 0.093-0.084v0l0.225-0.119 0.288-0.153 0.291-0.166c0.048-0.041 0.113-0.083 0.198-0.128v0c0.066-0.035 0.097-0.055 0.094-0.061v0l0.197-0.105 0.423-0.224 0.521-0.277c0.461-0.245 0.772-0.398 0.931-0.459v0c0.024-0.013 0.057-0.03 0.098-0.053 0.051-0.019 0.084-0.022 0.1-0.007v0c0.06-0.032 0.115-0.065 0.166-0.099 0.054-0.044 0.104-0.078 0.152-0.104v0c0.107-0.088 0.215-0.16 0.323-0.217v0c0.048-0.025 0.102-0.039 0.163-0.041v0c0.061-0.001 0.121-0.018 0.181-0.05v0l0.058-0.042 0.036-0.019c0.034 0.005 0.072 0.012 0.114 0.02 0.046 0.014 0.074 0.03 0.083 0.048v0l2.937 3.451c0.775 0.825 1.557 1.719 2.346 2.682v0c0.025 0.048 0.069 0.094 0.13 0.138v0c0.041 0.048 0.094 0.119 0.16 0.214 0.069 0.086 0.121 0.162 0.156 0.229v0c0.025 0.033 0.052 0.076 0.081 0.13v0c0.064 0.12 0.091 0.228 0.08 0.325v0c-0.005 0.064-0.04 0.113-0.105 0.149v0l-0.162 0.085c-0.126 0.067-0.223 0.115-0.292 0.144v0l-0.324 0.172-0.305 0.162-0.243 0.129c-0.066 0.035-0.1 0.049-0.104 0.043v0l-0.781 0.415-0.015-0.027c-0.045 0.001-0.092 0.014-0.14 0.04v0c0 0-0.001 0.005-0.004 0.014 0 0-0.003 0.009-0.008 0.027v0c0.01 0.018 0.008 0.03-0.004 0.037v0l-0.045 0.024-0.099 0.052c-0.045 0.001-0.131 0.035-0.257 0.102v0c-0.255 0.112-0.455 0.207-0.598 0.283v0c-0.086-0.046-0.215-0.166-0.386-0.359-0.175-0.199-0.361-0.419-0.558-0.66v0c-0.088-0.122-0.154-0.203-0.197-0.241v0c-0.158 0.122-0.378 0.258-0.659 0.407v0l-0.378 0.201-0.359 0.19 0.12 0.444c0.182 0.602 0.274 0.987 0.278 1.153v0c-0.03 0.016-0.064 0.046-0.102 0.089v0c-0.015 0.016-0.027 0.029-0.035 0.042-0.009 0.012-0.013 0.019-0.014 0.018v0l-0.054 0.029c-0.048 0.025-0.089 0.036-0.122 0.03v0c-0.028-0.008-0.053-0.006-0.077 0.007v0l-0.543 0.322-0.197 0.105-0.189 0.101c-0.02 0.034-0.055 0.064-0.103 0.089v0l-0.053 0.028-1.133 0.601-0.116 0.062c-0.087 0.054-0.271 0.155-0.553 0.305v0l-0.314 0.167c-0.063 0.041-0.157 0.095-0.283 0.161v0zM108.317 135.543c-0.273-0.37-0.409-0.554-0.41-0.554v0c-0.084-0.101-0.239-0.299-0.465-0.594v0c-0.062-0.074-0.222-0.274-0.479-0.598v0c-0.276-0.36-0.414-0.541-0.413-0.541v0c-0.113-0.155-0.213-0.286-0.301-0.393v0l-0.104-0.152c-0.046-0.029-0.079-0.062-0.098-0.098v0l-0.047-0.067c-0.002 0.024 0.004 0.051 0.02 0.081v0c0.019 0.036 0.024 0.06 0.016 0.073v0l0.028 0.054 0.059 0.176c0.017 0.06 0.038 0.13 0.064 0.207 0.026 0.078 0.054 0.159 0.084 0.244v0l0.123 0.384c0.187 0.569 0.292 0.897 0.315 0.984v0c0.036 0.096 0.088 0.245 0.157 0.447v0c0.011 0.063 0.039 0.16 0.084 0.289v0l0.202 0.619 0.638-0.339 0.066-0.07 0.027-0.014c0.096-0.051 0.175-0.082 0.239-0.092v0c0.03-0.016 0.063-0.026 0.099-0.03 0.036-0.004 0.068-0.009 0.096-0.016zM117.261 133.951c-0.075 0.059-0.145 0.101-0.21 0.127v0l-0.216 0.17-0.176 0.139-0.096 0.075-0.589 0.271-0.102-0.063c-0.011 0.008-0.047-0.027-0.11-0.107v0c-0.188-0.206-0.395-0.453-0.622-0.74v0c-0.16-0.202-0.295-0.363-0.407-0.483v0c-0.16-0.202-0.284-0.35-0.374-0.443v0l-0.309-0.391c-0.302-0.306-0.615-0.66-0.939-1.061-0.32-0.395-0.631-0.785-0.934-1.168v0l-0.865-1.131c-0.086-0.131-0.232-0.327-0.438-0.588v0c-0.201-0.256-0.356-0.441-0.463-0.555v0c-0.156-0.154-0.206-0.317-0.152-0.488v0c0.045-0.096 0.158-0.215 0.34-0.359v0c0.272-0.214 0.616-0.494 1.034-0.84v0l0.221-0.213c0.417-0.38 0.681-0.615 0.793-0.703v0c0.101-0.08 0.177-0.131 0.228-0.154v0c0.105-0.074 0.185-0.116 0.239-0.124 0.054-0.008 0.118 0.002 0.192 0.03 0.074 0.028 0.129 0.049 0.167 0.063v0c0.183 0.046 0.369 0.102 0.559 0.168v0c0.288 0.092 0.517 0.163 0.685 0.212v0l1.596 0.529 0.774 0.259c-0.151-0.192-0.263-0.35-0.335-0.475v0l-0.806-1.022-0.579-0.801c-0.041-0.063-0.066-0.112-0.077-0.146-0.011-0.025-0.013-0.05-0.006-0.074 0.002-0.019 0.007-0.035 0.013-0.049v0c0.026-0.142 0.07-0.267 0.132-0.375v0c0.062-0.075 0.114-0.129 0.157-0.163v0l0.623-0.491 0.136-0.107c0.067-0.036 0.172-0.11 0.316-0.223v0c0.165-0.13 0.295-0.228 0.39-0.294v0l0.375-0.296 0.312-0.246 0.128-0.101c0.192-0.151 0.343-0.223 0.453-0.214v0c0.126-0.004 0.267 0.092 0.422 0.289v0l0.08 0.118 0.13 0.182c0.023 0.051 0.064 0.114 0.123 0.189v0l0.107 0.135 0.069 0.088 0.106 0.085 0.277 0.352c0.095 0.132 0.261 0.347 0.496 0.645v0l0.642 0.815c0.14 0.2 0.345 0.471 0.614 0.812v0l0.503 0.639 0.296 0.376 1.367 1.734 0.287 0.447c0.102 0.196 0.126 0.346 0.07 0.45v0l-0.185 0.159-0.191 0.137-0.495 0.39-0.647 0.51-0.671 0.529-0.168 0.132c-0.131 0.129-0.287 0.222-0.468 0.278v0c-0.09 0.028-0.203 0.039-0.337 0.032v0l-2.352-0.684c-0.008-0.011-0.195-0.084-0.561-0.219v0c-0.13-0.044-0.247-0.078-0.351-0.099v0c-0.041-0.019-0.076-0.031-0.104-0.034-0.038-0.005-0.06-0.005-0.065-0.001v0c-0.064 0.05-0.073 0.105-0.027 0.164v0l0.195 0.247c0.044 0.078 0.133 0.202 0.268 0.372v0l0.34 0.432 0.327 0.415c0.057 0.094 0.137 0.207 0.242 0.341v0l0.177 0.223 0.125 0.16 0.052 0.05c0.046 0.059 0.046 0.119 0.001 0.181v0c-0.016 0.056-0.069 0.11-0.157 0.162v0c-0.242 0.208-0.429 0.377-0.56 0.506v0c-0.082 0.082-0.228 0.214-0.438 0.397-0.206 0.188-0.405 0.358-0.596 0.509zM125.906 126.588c-0.076 0.087-0.199 0.087-0.367 0.002v0c-0.029-0.008-0.069-0.034-0.121-0.079v0c-0.071-0.063-0.162-0.17-0.273-0.321v0c-0.078-0.096-0.138-0.171-0.18-0.226-0.047-0.059-0.081-0.103-0.102-0.131v0c-0.805-1.077-1.492-2.047-2.062-2.909v0l-2.679-3.654c-0.015-0.013-0.024-0.044-0.028-0.092-0.013-0.047-0.01-0.086 0.007-0.116v0l0.047-0.053c0.005 0.004 0.017-0.003 0.035-0.024v0c0.076-0.087 0.149-0.19 0.218-0.31v0c0.074-0.125 0.149-0.231 0.224-0.317v0c0.134-0.153 0.27-0.287 0.407-0.401v0c0.054-0.061 0.119-0.125 0.196-0.193 0.077-0.077 0.151-0.156 0.223-0.238v0c0.027-0.031 0.046-0.068 0.058-0.112v0l0.167-0.191 0.215-0.244 0.214-0.259c0.03-0.055 0.076-0.118 0.139-0.189v0c0.049-0.056 0.071-0.086 0.067-0.091v0l0.147-0.168 0.316-0.359 0.39-0.444c0.345-0.392 0.581-0.645 0.707-0.759v0c0.018-0.02 0.043-0.048 0.074-0.084 0.041-0.036 0.071-0.05 0.091-0.042v0c0.045-0.051 0.085-0.102 0.12-0.152 0.035-0.06 0.07-0.11 0.106-0.151v0c0.069-0.12 0.144-0.226 0.224-0.317v0c0.036-0.041 0.082-0.073 0.138-0.095v0c0.056-0.023 0.107-0.06 0.152-0.111v0l0.039-0.06 0.027-0.031c0.033-0.007 0.071-0.014 0.114-0.022 0.048-0.003 0.079 0.002 0.095 0.016v0l3.968 2.188c1.017 0.497 2.065 1.056 3.143 1.678v0c0.041 0.036 0.098 0.063 0.171 0.083v0c0.055 0.03 0.13 0.078 0.226 0.144 0.095 0.056 0.17 0.109 0.226 0.158v0c0.035 0.022 0.075 0.053 0.122 0.093v0c0.102 0.09 0.165 0.182 0.191 0.276v0c0.018 0.061 0.003 0.12-0.047 0.176v0l-0.121 0.138c-0.094 0.107-0.168 0.186-0.222 0.238v0l-0.242 0.275-0.228 0.26-0.182 0.206c-0.049 0.056-0.076 0.082-0.081 0.077v0l-0.584 0.665-0.023-0.02c-0.042 0.017-0.081 0.046-0.117 0.087v0c0 0 0 0.005 0.001 0.014 0 0 0.001 0.01 0.002 0.029v0c0.015 0.013 0.018 0.025 0.009 0.035v0l-0.033 0.038-0.074 0.085c-0.042 0.017-0.11 0.079-0.205 0.186v0c-0.199 0.195-0.352 0.354-0.459 0.476v0c-0.097-0.013-0.26-0.079-0.489-0.199-0.234-0.124-0.486-0.264-0.755-0.42v0c-0.126-0.083-0.215-0.135-0.269-0.155v0c-0.104 0.17-0.262 0.375-0.472 0.614v0l-0.282 0.321-0.269 0.306 0.269 0.371c0.383 0.499 0.606 0.826 0.669 0.981v0c-0.022 0.025-0.044 0.065-0.065 0.119v0c-0.008 0.02-0.014 0.037-0.018 0.052-0.004 0.015-0.006 0.022-0.006 0.022v0l-0.04 0.046c-0.036 0.041-0.07 0.065-0.103 0.071v0c-0.029 0.002-0.052 0.013-0.07 0.034v0l-0.394 0.494-0.148 0.168-0.141 0.16c-0.007 0.039-0.029 0.079-0.064 0.12v0l-0.04 0.046-0.846 0.962-0.088 0.1c-0.062 0.081-0.198 0.241-0.408 0.48v0l-0.235 0.268c-0.044 0.061-0.113 0.144-0.208 0.251v0zM127.602 119.465c-0.386-0.249-0.579-0.374-0.579-0.374v0c-0.115-0.065-0.33-0.195-0.645-0.391v0c-0.085-0.047-0.305-0.177-0.66-0.39v0c-0.385-0.239-0.578-0.359-0.578-0.359v0c-0.161-0.105-0.301-0.192-0.42-0.261v0l-0.151-0.105c-0.054-0.011-0.096-0.03-0.127-0.057v0l-0.067-0.046c0.006 0.024 0.022 0.047 0.047 0.069v0c0.031 0.027 0.044 0.048 0.04 0.062v0l0.046 0.04 0.118 0.144c0.037 0.05 0.081 0.108 0.133 0.172 0.052 0.064 0.107 0.13 0.164 0.198v0l0.251 0.315c0.376 0.466 0.59 0.736 0.644 0.81v0c0.067 0.077 0.169 0.198 0.304 0.362v0c0.032 0.056 0.093 0.136 0.181 0.241v0l0.408 0.507 0.477-0.543 0.037-0.089 0.02-0.023c0.072-0.082 0.135-0.138 0.191-0.171v0c0.022-0.025 0.05-0.046 0.083-0.063 0.033-0.017 0.06-0.033 0.083-0.048zM136.74 112.525l-0.963 1.581-1.109 1.826c-0.084 0.14-0.226 0.173-0.427 0.099v0c-0.135-0.026-0.307-0.101-0.517-0.227v0c-0.692-0.416-1.316-0.779-1.872-1.09v0c-0.799-0.448-1.634-0.935-2.506-1.459v0l-2.633-1.582c-0.076-0.045-0.126-0.119-0.152-0.222-0.028-0.112-0.019-0.205 0.026-0.281v0l0.842-1.381c0.172-0.26 0.377-0.588 0.615-0.984v0c0.36-0.599 0.635-1.07 0.826-1.414v0l0.259-0.45c0.28-0.505 0.507-0.902 0.681-1.192v0c0.297-0.494 0.681-0.916 1.153-1.266v0c0.538-0.421 1.157-0.642 1.858-0.663v0c0.839-0.026 1.703 0.228 2.592 0.762v0c0.837 0.503 1.482 1.017 1.934 1.542 0.446 0.521 0.727 1.094 0.843 1.718v0c0.101 0.622 0.035 1.311-0.197 2.065-0.241 0.757-0.659 1.63-1.253 2.618zM135.193 111.465c0.023-0.026 0.052-0.067 0.088-0.126v0c0.038-0.064 0.085-0.155 0.139-0.272v0c0.013-0.048 0.02-0.087 0.023-0.117-0.001-0.024 0.001-0.047 0.005-0.068v0c-0.055-0.159-0.236-0.391-0.543-0.695v0c-0.192-0.194-0.533-0.495-1.025-0.901v0c-0.441-0.32-0.829-0.582-1.167-0.784v0l-0.227-0.136c-0.209-0.126-0.532-0.292-0.969-0.5v0c-0.453-0.193-0.796-0.288-1.028-0.285v0c-0.163 0.021-0.265 0.066-0.307 0.136v0c-0.045 0.076-0.075 0.145-0.089 0.207-0.023 0.065-0.034 0.11-0.033 0.135v0c-0.001 0.015-0.002 0.062-0.002 0.141v0l1.433 0.873c0.128 0.077 0.314 0.201 0.56 0.372v0l0.277 0.191c0.394 0.253 0.678 0.431 0.853 0.536v0zM140.789 105.065c-0.041 0.108-0.155 0.151-0.343 0.131v0c-0.03 0.003-0.077-0.007-0.14-0.031v0c-0.089-0.034-0.212-0.102-0.369-0.205v0c-0.107-0.062-0.19-0.112-0.248-0.149-0.065-0.039-0.112-0.068-0.141-0.086v0c-1.132-0.726-2.115-1.393-2.952-2v0l-3.791-2.482c-0.019-0.007-0.038-0.033-0.058-0.077-0.028-0.04-0.04-0.077-0.034-0.111v0l0.025-0.066c0.006 0.002 0.014-0.009 0.024-0.035v0c0.041-0.108 0.073-0.23 0.095-0.366v0c0.025-0.143 0.058-0.268 0.099-0.376v0c0.072-0.19 0.152-0.363 0.24-0.518v0c0.029-0.076 0.068-0.159 0.117-0.25 0.045-0.099 0.086-0.199 0.125-0.301v0c0.014-0.038 0.019-0.08 0.014-0.124v0l0.09-0.238 0.116-0.305 0.109-0.317c0.009-0.062 0.03-0.137 0.064-0.226v0c0.026-0.07 0.036-0.106 0.03-0.108v0l0.08-0.21 0.169-0.447 0.21-0.551c0.185-0.488 0.317-0.808 0.396-0.96v0c0.01-0.025 0.023-0.06 0.04-0.104 0.026-0.048 0.049-0.072 0.07-0.072v0c0.024-0.063 0.044-0.125 0.059-0.184 0.011-0.068 0.027-0.128 0.046-0.178v0c0.023-0.136 0.056-0.262 0.099-0.376v0c0.019-0.051 0.051-0.097 0.096-0.138v0c0.045-0.041 0.079-0.093 0.103-0.157v0l0.015-0.07 0.015-0.038c0.029-0.018 0.062-0.038 0.099-0.06 0.044-0.02 0.075-0.026 0.094-0.019v0l4.484 0.656c1.127 0.108 2.304 0.264 3.532 0.469v0c0.051 0.019 0.114 0.025 0.189 0.017v0c0.062 0.009 0.149 0.028 0.262 0.056 0.109 0.019 0.198 0.042 0.268 0.069v0c0.04 0.008 0.089 0.023 0.146 0.044v0c0.127 0.048 0.219 0.112 0.276 0.192v0c0.039 0.051 0.045 0.111 0.018 0.181v0l-0.065 0.171c-0.051 0.133-0.092 0.233-0.125 0.301v0l-0.13 0.342-0.122 0.324-0.098 0.256c-0.026 0.07-0.043 0.103-0.049 0.101v0l-0.314 0.828-0.028-0.011c-0.033 0.031-0.06 0.072-0.079 0.122v0c0 0 0.002 0.004 0.006 0.014 0 0 0.004 0.009 0.011 0.026v0c0.019 0.007 0.026 0.017 0.022 0.03v0l-0.018 0.047-0.04 0.105c-0.033 0.031-0.075 0.113-0.126 0.246v0c-0.118 0.253-0.205 0.455-0.263 0.607v0c-0.095 0.022-0.271 0.017-0.527-0.015-0.263-0.034-0.547-0.077-0.855-0.128v0c-0.147-0.034-0.249-0.051-0.307-0.051v0c-0.038 0.196-0.114 0.443-0.226 0.741v0l-0.152 0.399-0.144 0.381 0.383 0.254c0.534 0.333 0.857 0.561 0.97 0.683v0c-0.012 0.032-0.018 0.077-0.019 0.135v0c-0.001 0.021-0.001 0.04 0.001 0.054 0.002 0.015 0.002 0.023 0.003 0.023v0l-0.022 0.057c-0.019 0.051-0.043 0.085-0.072 0.103v0c-0.026 0.012-0.044 0.03-0.053 0.056v0l-0.196 0.601-0.079 0.209-0.076 0.2c0.007 0.039 0.001 0.084-0.018 0.134v0l-0.022 0.057-0.454 1.199-0.047 0.123c-0.03 0.098-0.101 0.295-0.214 0.594v0l-0.126 0.333c-0.02 0.072-0.055 0.175-0.106 0.308v0zM139.878 97.8c-0.449-0.098-0.673-0.147-0.674-0.146v0c-0.13-0.02-0.377-0.067-0.741-0.14v0c-0.096-0.015-0.347-0.059-0.754-0.134v0c-0.445-0.089-0.667-0.133-0.668-0.133v0c-0.187-0.042-0.349-0.074-0.485-0.097v0l-0.179-0.046c-0.054 0.009-0.1 0.006-0.138-0.009v0l-0.079-0.019c0.014 0.02 0.037 0.036 0.069 0.048v0c0.038 0.014 0.058 0.029 0.059 0.044v0l0.057 0.022 0.16 0.093c0.052 0.034 0.114 0.072 0.186 0.114 0.071 0.042 0.146 0.084 0.223 0.128v0l0.346 0.207c0.516 0.304 0.811 0.482 0.886 0.532v0c0.09 0.049 0.228 0.126 0.412 0.233v0c0.05 0.041 0.135 0.095 0.255 0.161v0l0.559 0.332 0.256-0.675 0.004-0.096 0.011-0.029c0.038-0.101 0.078-0.177 0.119-0.227v0c0.012-0.032 0.03-0.061 0.055-0.088 0.025-0.027 0.045-0.052 0.061-0.075zM1.03 74.526c0-2.051 1.663-3.714 3.714-3.714 2.051 0 3.714 1.663 3.713 3.714 0 2.051-1.663 3.714-3.713 3.713-2.051 0-3.714-1.663-3.714-3.713zM139.558 74.526c0-2.051 1.663-3.714 3.714-3.714 2.051 0 3.714 1.663 3.714 3.714 0 2.051-1.663 3.714-3.714 3.713-2.051 0-3.714-1.663-3.714-3.713z" fill="#ffffff" data-fill-palette-color="accent"></path></svg></g></svg></g></svg></g></svg><rect width="395.52" height="105.18783582198095" fill="none" stroke="none" visibility="hidden"></rect></g></svg></g></svg>